<svg width="16" height="16" viewBox="0 0 16 16" fill="none" xmlns="http://www.w3.org/2000/svg">
<path d="M7.92822 12.4445L7.92822 3.55556L2.21392 2.28572L2.21392 13.7143L7.92822 12.4445Z" fill="#E05243"/>
<path d="M14.5289 12.7297C14.6942 12.5461 14.7856 12.3078 14.7856 12.0607L14.7856 3.9393C14.7856 3.69226 14.6942 3.45396 14.5289 3.27034L13.6428 2.28572L13.6428 13.7143L14.5289 12.7297Z" fill="#E05243"/>
<path d="M1.32799 12.7297C1.16273 12.5461 1.07129 12.3078 1.07129 12.0607L1.07129 3.9393C1.07129 3.69226 1.16273 3.45396 1.32799 3.27034L2.21415 2.28572L2.21415 13.7143L1.32799 12.7297Z" fill="#8C3123"/>
<path d="M7.92822 12.4445L7.92822 4.19049L13.6425 2.28572L13.6425 13.7143L7.92822 12.4445Z" fill="#8C3123"/>
<path d="M7.92822 0V4.00001L10.2139 4.57144V1.76089C10.2139 1.38212 9.99994 1.03586 9.66116 0.866468L7.92822 0Z" fill="#E05243"/>
<path d="M7.92822 0V4.00001L5.6425 4.57144V1.76089C5.6425 1.38212 5.8565 1.03586 6.19529 0.866468L7.92822 0Z" fill="#8C3123"/>
<path d="M7.92822 5.71429V10.2857L6.39996 9.90367C5.9548 9.79238 5.6425 9.3924 5.6425 8.93353V7.0665C5.6425 6.60763 5.9548 6.20765 6.39997 6.09636L7.92822 5.71429Z" fill="#8C3123"/>
<path d="M7.92822 5.71429V10.2857L9.45648 9.90367C9.90165 9.79238 10.2139 9.3924 10.2139 8.93353V7.0665C10.2139 6.60763 9.90165 6.20765 9.45648 6.09636L7.92822 5.71429Z" fill="#E05243"/>
<path d="M5.64258 4.5714L7.9283 3.99997L10.214 4.5714L7.9283 5.14283L5.64258 4.5714Z" fill="#5E1F18"/>
<path d="M7.92822 15.9999L7.92822 11.9999L5.6425 11.4285L5.6425 14.239C5.6425 14.6178 5.8565 14.964 6.19529 15.1334L7.92822 15.9999Z" fill="#8C3123"/>
<path d="M7.92822 15.9999L7.92822 11.9999L10.2139 11.4285L10.2139 14.239C10.2139 14.6178 9.99994 14.964 9.66116 15.1334L7.92822 15.9999Z" fill="#E05243"/>
<path d="M10.2139 11.4285L7.92815 11.9999L5.64242 11.4285L7.92815 10.8571L10.2139 11.4285Z" fill="#F2B0A9"/>
</svg>
