<svg width="100" height="100" viewBox="0 0 100 100" fill="none" xmlns="http://www.w3.org/2000/svg">
<path fill-rule="evenodd" clip-rule="evenodd" d="M71.7502 25.7481C71.7502 37.7602 62.0133 47.4985 50.0022 47.4985C37.9903 47.4985 28.2536 37.7602 28.2536 25.7481C28.2536 13.7382 37.9903 4 50.0022 4C62.0133 4 71.7502 13.7382 71.7502 25.7481ZM21.7485 52.9365C9.73723 52.9365 0 62.6718 0 74.6843C0 86.6954 9.73723 96.4326 21.7485 96.4326C33.7602 96.4326 43.498 86.6954 43.498 74.6843C43.498 62.6718 33.7602 52.9365 21.7485 52.9365ZM78.2514 52.9346C66.2401 52.9346 56.5028 62.6718 56.5028 74.684C56.5028 86.6954 66.2401 96.4326 78.2514 96.4326C90.2628 96.4326 100 86.6954 100 74.684C100 62.6718 90.2628 52.9346 78.2514 52.9346Z" fill="url(#paint0_radial)"/>
<defs>
<radialGradient id="paint0_radial" cx="0" cy="0" r="1" gradientUnits="userSpaceOnUse" gradientTransform="translate(50 54.1259) rotate(149.053) scale(51.5134 50.533)">
<stop stop-color="#FFB900"/>
<stop offset="0.74709" stop-color="#FA5C86"/>
<stop offset="1" stop-color="#F95353"/>
</radialGradient>
</defs>
</svg>
