<svg width="100" height="100" viewBox="0 0 100 100" fill="none" xmlns="http://www.w3.org/2000/svg">
<g clip-path="url(#clip0)">
<path d="M49.2564 61.9044C55.8321 61.9044 61.1627 56.5738 61.1627 49.9981C61.1627 43.4224 55.8321 38.0918 49.2564 38.0918C42.6807 38.0918 37.3501 43.4224 37.3501 49.9981C37.3501 56.5738 42.6807 61.9044 49.2564 61.9044Z" fill="#161616"/>
<path d="M49.2564 0.00028608C25.9584 0.00028608 6.38491 15.9364 0.832983 37.4987C0.781133 37.6922 0.753306 37.8914 0.750122 38.0918C0.750122 39.4002 1.81427 40.4731 3.13138 40.4731H23.2936C23.75 40.4746 24.197 40.3435 24.5803 40.0958C24.9635 39.848 25.2665 39.4942 25.4525 39.0774C25.4525 39.0774 25.483 39.0208 25.4961 38.9902C29.6524 30.0234 38.7282 23.7998 49.2651 23.7998C63.7315 23.7998 75.459 35.523 75.459 49.9894C75.459 64.4558 63.7359 76.179 49.2695 76.179C38.737 76.179 29.6611 69.9554 25.5004 60.9886C25.4874 60.958 25.4568 60.9013 25.4568 60.9013C25.073 60.0553 24.2269 59.5057 23.298 59.5057H3.13574C1.81863 59.5057 0.754481 60.5699 0.754481 61.887C0.756749 62.0874 0.784591 62.2868 0.837342 62.4801C6.38926 84.0424 25.9671 99.9785 49.2608 99.9785C76.8764 99.9742 99.3022 77.592 99.3022 49.9807C99.3022 22.3693 76.9157 -0.0171661 49.3044 -0.0171661L49.2564 0.00028608Z" fill="#161616"/>
</g>
<defs>
<clipPath id="clip0">
<rect width="100" height="100" fill="white"/>
</clipPath>
</defs>
</svg>
