<?xml version="1.0" encoding="UTF-8"?>
<svg xmlns="http://www.w3.org/2000/svg" xmlns:xlink="http://www.w3.org/1999/xlink" width="734.13pt" height="197.83pt" viewBox="0 0 734.13 197.83" version="1.1">
<defs>
<clipPath id="clip1">
  <path d="M 103 101 L 191 101 L 191 197.828125 L 103 197.828125 Z M 103 101 "/>
</clipPath>
<clipPath id="clip2">
  <path d="M 304 101 L 395 101 L 395 197.828125 L 304 197.828125 Z M 304 101 "/>
</clipPath>
<clipPath id="clip3">
  <path d="M 405 55 L 496 55 L 496 197.828125 L 405 197.828125 Z M 405 55 "/>
</clipPath>
<clipPath id="clip4">
  <path d="M 0 55 L 90 55 L 90 197.828125 L 0 197.828125 Z M 0 55 "/>
</clipPath>
<clipPath id="clip5">
  <path d="M 510 100 L 600 100 L 600 197.828125 L 510 197.828125 Z M 510 100 "/>
</clipPath>
<clipPath id="clip6">
  <path d="M 696 78 L 734.128906 78 L 734.128906 117 L 696 117 Z M 696 78 "/>
</clipPath>
<clipPath id="clip7">
  <path d="M 696 22 L 734.128906 22 L 734.128906 61 L 696 61 Z M 696 22 "/>
</clipPath>
</defs>
<g id="surface1">
<g clip-path="url(#clip1)" clip-rule="nonzero">
<path style=" stroke:none;fill-rule:nonzero;fill:rgb(13.699341%,12.199402%,12.89978%);fill-opacity:1;" d="M 154.636719 197.402344 C 138.246094 197.402344 125.691406 193.296875 116.949219 185.085938 C 108.21875 176.871094 103.851563 165.179688 103.851563 149.992188 C 103.851563 135.136719 107.925781 123.277344 116.0625 114.417969 C 124.203125 105.554688 135.589844 101.121094 150.230469 101.121094 C 163.527344 101.121094 173.527344 104.882813 180.21875 112.390625 C 186.917969 119.902344 190.269531 130.65625 190.269531 144.652344 L 190.269531 154.859375 L 130.984375 154.859375 C 131.238281 159.074219 132.09375 162.609375 133.539063 165.429688 C 134.976563 168.273438 136.882813 170.519531 139.257813 172.203125 C 141.574219 173.875 144.28125 175.078125 147.371094 175.816406 C 150.460938 176.53125 153.828125 176.894531 157.496094 176.894531 C 160.644531 176.894531 163.734375 176.53125 166.765625 175.816406 C 169.8125 175.078125 172.597656 174.117188 175.121094 172.933594 C 177.328125 171.902344 179.386719 170.792969 181.261719 169.605469 C 183.152344 168.425781 184.675781 167.367188 185.863281 166.449219 L 188.726563 166.449219 L 188.726563 189.875 C 186.515625 190.785156 184.484375 191.648438 182.65625 192.425781 C 180.824219 193.207031 178.308594 194 175.121094 194.820313 C 172.1875 195.621094 169.152344 196.253906 166.03125 196.71875 C 162.921875 197.167969 159.113281 197.402344 154.636719 197.402344 M 163.601563 137.761719 C 163.445313 131.761719 162.117188 127.203125 159.625 124.0625 C 157.117188 120.929688 153.292969 119.355469 148.140625 119.355469 C 142.894531 119.355469 138.777344 121.007813 135.808594 124.308594 C 132.84375 127.597656 131.210938 132.082031 130.910156 137.761719 L 163.601563 137.761719 "/>
</g>
<path style=" stroke:none;fill-rule:nonzero;fill:rgb(13.699341%,12.199402%,12.89978%);fill-opacity:1;" d="M 290.296875 194.96875 L 263.085938 194.96875 L 263.085938 149.835938 C 263.085938 146.160156 262.945313 142.5 262.652344 138.839844 C 262.378906 135.203125 261.855469 132.515625 261.070313 130.789063 C 260.152344 128.738281 258.808594 127.265625 257.058594 126.371094 C 255.304688 125.480469 252.953125 125.03125 250.023438 125.03125 C 247.808594 125.03125 245.5625 125.46875 243.300781 126.328125 C 241.027344 127.199219 238.605469 128.574219 236.027344 130.460938 L 236.027344 194.96875 L 208.976563 194.96875 L 208.976563 103.96875 L 236.027344 103.96875 L 236.027344 114.015625 C 240.464844 110.066406 244.777344 106.992188 248.980469 104.765625 C 253.171875 102.558594 257.832031 101.453125 262.929688 101.453125 C 271.796875 101.453125 278.566406 104.386719 283.261719 110.246094 C 287.953125 116.105469 290.296875 124.605469 290.296875 135.726563 L 290.296875 194.96875 "/>
<g clip-path="url(#clip2)" clip-rule="nonzero">
<path style=" stroke:none;fill-rule:nonzero;fill:rgb(13.699341%,12.199402%,12.89978%);fill-opacity:1;" d="M 394.476563 149.527344 C 394.476563 164.5 390.574219 176.289063 382.765625 184.902344 C 374.960938 193.523438 363.902344 197.828125 349.617188 197.828125 C 335.464844 197.828125 324.445313 193.523438 316.585938 184.902344 C 308.738281 176.289063 304.820313 164.5 304.820313 149.527344 C 304.820313 134.398438 308.738281 122.554688 316.585938 113.988281 C 324.445313 105.425781 335.464844 101.140625 349.617188 101.140625 C 363.851563 101.140625 374.898438 105.457031 382.730469 114.066406 C 390.5625 122.691406 394.476563 134.507813 394.476563 149.527344 M 366.714844 149.691406 C 366.714844 144.289063 366.28125 139.792969 365.433594 136.199219 C 364.585938 132.597656 363.414063 129.726563 361.921875 127.570313 C 360.3125 125.289063 358.507813 123.714844 356.503906 122.824219 C 354.492188 121.9375 352.191406 121.488281 349.617188 121.488281 C 347.207031 121.488281 345.011719 121.882813 343.054688 122.664063 C 341.101563 123.449219 339.300781 124.945313 337.65625 127.160156 C 336.109375 129.269531 334.871094 132.160156 333.941406 135.832031 C 333.015625 139.507813 332.550781 144.121094 332.550781 149.691406 C 332.550781 155.257813 332.988281 159.753906 333.863281 163.183594 C 334.742188 166.617188 335.867188 169.355469 337.269531 171.402344 C 338.703125 173.519531 340.507813 175.058594 342.671875 176.03125 C 344.828125 177.003906 347.226563 177.484375 349.847656 177.484375 C 352.015625 177.484375 354.226563 177.003906 356.460938 176.03125 C 358.703125 175.058594 360.496094 173.601563 361.828125 171.65625 C 363.4375 169.335938 364.644531 166.53125 365.476563 163.265625 C 366.304688 159.996094 366.714844 155.472656 366.714844 149.691406 "/>
</g>
<g clip-path="url(#clip3)" clip-rule="nonzero">
<path style=" stroke:none;fill-rule:nonzero;fill:rgb(13.699341%,12.199402%,12.89978%);fill-opacity:1;" d="M 467.632813 55.796875 L 467.632813 108.339844 C 463.757813 106.246094 457.480469 103.148438 454.078125 102.242188 C 451.121094 101.453125 447.449219 100.742188 442.910156 100.742188 C 437.921875 100.742188 433.171875 101.894531 428.695313 104.191406 C 424.199219 106.488281 420.394531 109.597656 417.253906 113.542969 C 416.496094 114.484375 415.796875 115.484375 415.128906 116.507813 C 408.898438 124.777344 405.777344 135.640625 405.777344 149.109375 C 405.777344 164.066406 409.699219 175.859375 417.5625 184.484375 C 425.421875 193.101563 436.4375 197.410156 450.613281 197.410156 C 464.890625 197.410156 475.929688 193.101563 483.734375 184.484375 C 491.300781 176.128906 495.277344 164.777344 495.511719 150.46875 L 495.511719 55.796875 Z M 466.453125 162.839844 C 465.636719 166.117188 464.417969 168.90625 462.824219 171.234375 C 461.484375 173.175781 459.691406 174.636719 457.445313 175.609375 C 455.214844 176.570313 453.003906 177.070313 450.84375 177.070313 C 448.214844 177.070313 445.816406 176.570313 443.65625 175.609375 C 441.488281 174.636719 439.6875 173.09375 438.234375 170.992188 C 436.851563 168.933594 435.71875 166.191406 434.84375 162.761719 C 433.960938 159.335938 433.523438 154.832031 433.523438 149.269531 C 433.523438 143.703125 433.996094 139.082031 434.917969 135.40625 C 435.84375 131.734375 437.09375 128.847656 438.628906 126.734375 C 440.273438 124.527344 442.085938 123.015625 444.042969 122.234375 C 446 121.460938 448.183594 121.0625 450.613281 121.0625 C 453.1875 121.0625 455.480469 121.519531 457.480469 122.402344 C 459.503906 123.292969 461.308594 124.871094 462.898438 127.136719 C 464.398438 129.304688 465.566406 132.183594 466.414063 135.769531 C 467.269531 139.363281 467.691406 143.867188 467.691406 149.269531 C 467.691406 155.042969 467.28125 159.574219 466.453125 162.839844 "/>
</g>
<g clip-path="url(#clip4)" clip-rule="nonzero">
<path style=" stroke:none;fill-rule:nonzero;fill:rgb(13.699341%,12.199402%,12.89978%);fill-opacity:1;" d="M 61.859375 55.796875 L 61.859375 108.339844 C 57.980469 106.246094 51.703125 103.148438 48.296875 102.242188 C 45.34375 101.453125 41.671875 100.742188 37.136719 100.742188 C 32.148438 100.742188 27.398438 101.894531 22.917969 104.191406 C 18.425781 106.488281 14.617188 109.597656 11.472656 113.542969 C 10.722656 114.484375 10.019531 115.484375 9.351563 116.507813 C 3.125 124.777344 0 135.640625 0 149.109375 C 0 164.066406 3.925781 175.859375 11.785156 184.484375 C 19.648438 193.101563 30.65625 197.410156 44.835938 197.410156 C 59.113281 197.410156 70.15625 193.101563 77.957031 184.484375 C 85.523438 176.128906 89.503906 164.777344 89.734375 150.46875 L 89.734375 55.796875 Z M 60.683594 162.839844 C 59.859375 166.117188 58.648438 168.90625 57.046875 171.234375 C 55.707031 173.175781 53.914063 174.636719 51.671875 175.609375 C 49.4375 176.570313 47.226563 177.070313 45.066406 177.070313 C 42.4375 177.070313 40.042969 176.570313 37.882813 175.609375 C 35.714844 174.636719 33.90625 173.09375 32.464844 170.992188 C 31.078125 168.933594 29.945313 166.191406 29.0625 162.761719 C 28.183594 159.335938 27.746094 154.832031 27.746094 149.269531 C 27.746094 143.703125 28.21875 139.082031 29.140625 135.40625 C 30.066406 131.734375 31.308594 128.847656 32.855469 126.734375 C 34.503906 124.527344 36.3125 123.015625 38.269531 122.234375 C 40.222656 121.460938 42.40625 121.0625 44.835938 121.0625 C 47.414063 121.0625 49.703125 121.519531 51.707031 122.402344 C 53.722656 123.292969 55.53125 124.871094 57.128906 127.136719 C 58.621094 129.304688 59.789063 132.183594 60.644531 135.769531 C 61.496094 139.363281 61.914063 143.867188 61.914063 149.269531 C 61.914063 155.042969 61.503906 159.574219 60.683594 162.839844 "/>
</g>
<g clip-path="url(#clip5)" clip-rule="nonzero">
<path style=" stroke:none;fill-rule:nonzero;fill:rgb(13.699341%,12.199402%,12.89978%);fill-opacity:1;" d="M 599.707031 149.109375 C 599.707031 164.066406 595.808594 175.863281 588 184.476563 C 580.195313 193.101563 569.144531 197.410156 554.878906 197.410156 C 540.707031 197.410156 529.6875 193.101563 521.832031 184.476563 C 513.96875 175.863281 510.042969 164.066406 510.042969 149.109375 C 510.042969 133.976563 513.96875 122.132813 521.832031 113.578125 C 529.6875 105.007813 540.707031 100.726563 554.878906 100.726563 C 569.097656 100.726563 580.121094 105.027344 587.957031 113.65625 C 595.796875 122.277344 599.707031 134.082031 599.707031 149.109375 M 571.957031 149.261719 C 571.957031 143.863281 571.539063 139.367188 570.695313 135.78125 C 569.835938 132.183594 568.660156 129.304688 567.164063 127.144531 C 565.566406 124.875 563.753906 123.300781 561.746094 122.40625 C 559.746094 121.519531 557.453125 121.0625 554.878906 121.0625 C 552.460938 121.0625 550.257813 121.460938 548.308594 122.242188 C 546.351563 123.023438 544.542969 124.527344 542.898438 126.742188 C 541.359375 128.84375 540.121094 131.734375 539.183594 135.417969 C 538.261719 139.082031 537.789063 143.703125 537.789063 149.261719 C 537.789063 154.828125 538.222656 159.335938 539.113281 162.761719 C 539.984375 166.199219 541.117188 168.933594 542.511719 170.988281 C 543.949219 173.09375 545.753906 174.644531 547.925781 175.609375 C 550.085938 176.585938 552.472656 177.066406 555.109375 177.066406 C 557.277344 177.066406 559.480469 176.585938 561.710938 175.609375 C 563.957031 174.644531 565.746094 173.179688 567.085938 171.234375 C 568.6875 168.910156 569.902344 166.109375 570.722656 162.839844 C 571.542969 159.578125 571.957031 155.046875 571.957031 149.261719 "/>
</g>
<path style=" stroke:none;fill-rule:nonzero;fill:rgb(94.099426%,32.499695%,28.999329%);fill-opacity:1;" d="M 623.488281 78.648438 L 637.441406 102.789063 L 613.273438 116.734375 L 599.320313 92.570313 L 623.488281 78.648438 "/>
<path style=" stroke:none;fill-rule:nonzero;fill:rgb(94.099426%,32.499695%,28.999329%);fill-opacity:1;" d="M 652.769531 111.625 L 680.683594 111.625 L 680.683594 139.539063 L 652.769531 139.539063 L 652.769531 111.625 "/>
<g clip-path="url(#clip6)" clip-rule="nonzero">
<path style=" stroke:none;fill-rule:nonzero;fill:rgb(94.099426%,32.499695%,28.999329%);fill-opacity:1;" d="M 696.003906 102.785156 L 709.964844 78.648438 L 734.132813 92.574219 L 720.171875 116.730469 L 696.003906 102.785156 "/>
</g>
<g clip-path="url(#clip7)" clip-rule="nonzero">
<path style=" stroke:none;fill-rule:nonzero;fill:rgb(94.099426%,32.499695%,28.999329%);fill-opacity:1;" d="M 709.964844 60.925781 L 696.007813 36.757813 L 720.167969 22.800781 L 734.132813 46.972656 L 709.964844 60.925781 "/>
</g>
<path style=" stroke:none;fill-rule:nonzero;fill:rgb(13.699341%,12.199402%,12.89978%);fill-opacity:1;" d="M 680.683594 83.742188 L 652.773438 83.742188 L 652.773438 55.820313 L 680.683594 55.820313 L 680.683594 83.742188 "/>
<path style=" stroke:none;fill-rule:nonzero;fill:rgb(94.099426%,32.499695%,28.999329%);fill-opacity:1;" d="M 680.683594 27.910156 L 652.773438 27.910156 L 652.773438 -0.00390625 L 680.683594 0 L 680.683594 27.910156 "/>
<path style=" stroke:none;fill-rule:nonzero;fill:rgb(94.099426%,32.499695%,28.999329%);fill-opacity:1;" d="M 637.441406 36.757813 L 623.488281 60.929688 L 599.320313 46.976563 L 613.273438 22.804688 L 637.441406 36.757813 "/>
</g>
</svg>
