<svg width="16" height="16" viewBox="0 0 16 16" fill="none" xmlns="http://www.w3.org/2000/svg">
<rect width="16" height="16" fill="white"/>
<path d="M14.061 4.57374C13.435 3.47434 12.586 2.60394 11.5136 1.96235C10.441 1.32073 9.27005 1 7.99994 1C6.72998 1 5.55867 1.32083 4.48632 1.96235C3.41381 2.60391 2.56477 3.47434 1.93881 4.57374C1.31295 5.67311 1 6.87363 1 8.17526C1 9.73882 1.44502 11.1448 2.33527 12.3936C3.22543 13.6425 4.37539 14.5067 5.78504 14.9862C5.94913 15.0175 6.0706 14.9955 6.14958 14.9209C6.22859 14.8462 6.26805 14.7527 6.26805 14.6407C6.26805 14.6221 6.26648 14.4539 6.26345 14.1362C6.26032 13.8185 6.25885 13.5413 6.25885 13.3048L6.04921 13.342C5.91554 13.3671 5.74692 13.3777 5.54335 13.3747C5.33986 13.3718 5.12863 13.35 4.90992 13.3093C4.69111 13.269 4.4876 13.1756 4.29922 13.0292C4.11093 12.8829 3.97727 12.6913 3.89825 12.4547L3.80711 12.2397C3.74636 12.0966 3.65072 11.9376 3.52006 11.7633C3.38939 11.5889 3.25726 11.4706 3.12359 11.4083L3.05978 11.3615C3.01726 11.3304 2.9778 11.2928 2.94131 11.2493C2.90485 11.2057 2.87756 11.1621 2.85933 11.1185C2.84107 11.0748 2.8562 11.039 2.90489 11.0108C2.95357 10.9827 3.04155 10.9691 3.16921 10.9691L3.35143 10.997C3.47297 11.022 3.6233 11.0965 3.80261 11.2212C3.98183 11.3457 4.12916 11.5077 4.24463 11.7069C4.38445 11.9623 4.55291 12.157 4.75049 12.2909C4.94791 12.4249 5.14695 12.4917 5.34743 12.4917C5.54791 12.4917 5.72106 12.4761 5.86696 12.4451C6.01269 12.414 6.14942 12.3672 6.27708 12.3049C6.33176 11.8874 6.48066 11.5667 6.72363 11.3425C6.37732 11.3052 6.06597 11.249 5.78941 11.1743C5.51302 11.0995 5.2274 10.9781 4.93274 10.8098C4.63793 10.6416 4.39336 10.4329 4.19898 10.1839C4.00456 9.93471 3.84501 9.6076 3.72054 9.20283C3.596 8.79791 3.53372 8.3308 3.53372 7.80139C3.53372 7.04759 3.77378 6.40613 4.25382 5.87665C4.02895 5.30993 4.05018 4.67463 4.31757 3.9708C4.49379 3.91468 4.75512 3.95679 5.10143 4.09688C5.4478 4.23704 5.7014 4.35711 5.86249 4.45665C6.02357 4.55617 6.15264 4.6405 6.24988 4.70889C6.81509 4.547 7.39837 4.46604 7.99987 4.46604C8.60138 4.46604 9.18478 4.547 9.75003 4.70889L10.0964 4.48476C10.3332 4.33521 10.6129 4.19816 10.9347 4.07358C11.2568 3.94907 11.503 3.91477 11.6733 3.9709C11.9466 4.67476 11.971 5.31003 11.746 5.87675C12.226 6.40623 12.4662 7.04785 12.4662 7.80149C12.4662 8.3309 12.4037 8.79948 12.2793 9.20751C12.1548 9.61562 11.9939 9.9424 11.7965 10.1886C11.5989 10.4347 11.3527 10.6418 11.0581 10.8099C10.7633 10.9781 10.4776 11.0995 10.2012 11.1743C9.92471 11.2491 9.61336 11.3053 9.26705 11.3427C9.5829 11.6229 9.74086 12.0651 9.74086 12.6693V14.6405C9.74086 14.7525 9.77885 14.846 9.85489 14.9207C9.93084 14.9952 10.0508 15.0172 10.2149 14.9859C11.6247 14.5064 12.7747 13.6422 13.6648 12.3933C14.5548 11.1446 15 9.73856 15 8.175C14.9997 6.87353 14.6866 5.67311 14.061 4.57374Z" fill="#3D3D3D"/>
</svg>
