<svg width="16" height="16" viewBox="0 0 16 16" fill="none" xmlns="http://www.w3.org/2000/svg">

<path d="M1.72356 11.7744L2.29858 12.1064L8.7046 1.01125L8.12957 0.679253L1.72356 11.7744Z" fill="#D85BAF"/>
<path d="M14.404 10.8877H1.59204V11.5517H14.404V10.8877Z" fill="#D85BAF"/>
<path d="M1.84551 11.2609L8.25391 14.9609L8.58591 14.3859L2.17751 10.6859L1.84551 11.2609Z" fill="#D85BAF"/>
<path d="M7.41264 1.61738L13.821 5.31738L14.153 4.74236L7.74464 1.04236L7.41264 1.61738Z" fill="#D85BAF"/>
<path d="M1.8472 4.74041L2.1792 5.31543L8.58759 1.61543L8.25559 1.0404L1.8472 4.74041Z" fill="#D85BAF"/>
<path d="M7.29663 1.01223L13.7026 12.1074L14.2777 11.7754L7.87165 0.680231L7.29663 1.01223Z" fill="#D85BAF"/>
<path d="M2.76409 4.2998H2.1001V11.6998H2.76409V4.2998Z" fill="#D85BAF"/>
<path d="M13.8998 4.2998H13.2358V11.6998H13.8998V4.2998Z" fill="#D85BAF"/>
<path d="M7.85087 14.1784L8.14087 14.6807L13.7145 11.4627L13.4245 10.9604L7.85087 14.1784Z" fill="#D85BAF"/>
<path d="M14.7797 11.9157C14.3957 12.5837 13.5397 12.8117 12.8717 12.4277C12.2037 12.0437 11.9757 11.1877 12.3597 10.5197C12.7437 9.85169 13.5997 9.62369 14.2677 10.0077C14.9398 10.3957 15.1678 11.2477 14.7797 11.9157Z" fill="#D85BAF"/>
<path d="M3.63595 5.47916C3.25195 6.14716 2.39594 6.37516 1.72794 5.99116C1.05994 5.60716 0.831944 4.75116 1.21594 4.08317C1.59994 3.41517 2.45594 3.18717 3.12394 3.57117C3.79195 3.95917 4.01995 4.81116 3.63595 5.47916Z" fill="#D85BAF"/>
<path d="M1.21985 11.9157C0.83585 11.2477 1.06385 10.3957 1.73185 10.0077C2.39985 9.62369 3.25185 9.85169 3.63985 10.5197C4.02385 11.1877 3.79585 12.0397 3.12785 12.4277C2.45585 12.8117 1.60385 12.5837 1.21985 11.9157Z" fill="#D85BAF"/>
<path d="M12.3639 5.47916C11.9799 4.81116 12.2079 3.95917 12.8759 3.57117C13.5439 3.18717 14.3959 3.41517 14.7839 4.08317C15.1679 4.75116 14.9399 5.60316 14.2719 5.99116C13.6039 6.37516 12.7479 6.14716 12.3639 5.47916Z" fill="#D85BAF"/>
<path d="M8 15.832C7.228 15.832 6.604 15.208 6.604 14.436C6.604 13.664 7.228 13.04 8 13.04C8.772 13.04 9.396 13.664 9.396 14.436C9.396 15.204 8.772 15.832 8 15.832Z" fill="#D85BAF"/>
<path d="M8 2.95997C7.228 2.95997 6.604 2.33597 6.604 1.56397C6.604 0.791969 7.228 0.167969 8 0.167969C8.772 0.167969 9.396 0.791969 9.396 1.56397C9.396 2.33597 8.772 2.95997 8 2.95997Z" fill="#D85BAF"/>
</svg>
