<svg width="74" height="76" viewBox="0 0 74 76" fill="none" xmlns="http://www.w3.org/2000/svg">
<path d="M72.3974 35.76L39.7974 3.16L36.6374 0L12.0974 24.54L0.87736 35.76C0.315558 36.3225 0 37.085 0 37.88C0 38.675 0.315558 39.4375 0.87736 40L23.2974 62.42L36.6374 75.76L61.1774 51.22L61.5574 50.84L72.3974 40C72.9592 39.4375 73.2747 38.675 73.2747 37.88C73.2747 37.085 72.9592 36.3225 72.3974 35.76V35.76ZM36.6374 49.08L25.4374 37.88L36.6374 26.68L47.8374 37.88L36.6374 49.08Z" fill="#2684FF"/>
<path d="M36.6374 26.68C33.1148 23.157 31.1293 18.3834 31.1143 13.4015C31.0993 8.41958 33.0561 3.6341 36.5574 0.0899963L12.0474 24.59L25.3874 37.93L36.6374 26.68Z" fill="url(#paint0_linear)"/>
<path d="M47.8674 37.85L36.6374 49.08C38.3899 50.8315 39.7801 52.9111 40.7286 55.2C41.6771 57.4889 42.1653 59.9423 42.1653 62.42C42.1653 64.8977 41.6771 67.3511 40.7286 69.64C39.7801 71.9289 38.3899 74.0086 36.6374 75.76V75.76L61.2074 51.19L47.8674 37.85Z" fill="url(#paint1_linear)"/>
<defs>
<linearGradient id="paint0_linear" x1="34.6374" y1="15.35" x2="18.9974" y2="30.99" gradientUnits="userSpaceOnUse">
<stop offset="0.18" stop-color="#0052CC"/>
<stop offset="1" stop-color="#2684FF"/>
</linearGradient>
<linearGradient id="paint1_linear" x1="989.462" y1="2323.06" x2="1529.64" y2="1972.97" gradientUnits="userSpaceOnUse">
<stop offset="0.18" stop-color="#0052CC"/>
<stop offset="1" stop-color="#2684FF"/>
</linearGradient>
</defs>
</svg>
