<svg width="16" height="16" viewBox="0 0 16 16" fill="none" xmlns="http://www.w3.org/2000/svg">

<path d="M0.75 8C0.75 11.9981 4.00219 15.25 8 15.25C11.9978 15.25 15.25 11.9981 15.25 8.00015C15.25 4.00225 11.9978 0.75 8 0.75C4.00218 0.75 0.75 4.00195 0.75 8Z" fill="#58AA50" stroke="#58AA50" stroke-width="0.5"/>
<path d="M5.99728 7.4495H6.00993C6.32894 7.45561 6.58475 7.7053 6.57834 8.00929V8.03933C6.5593 8.33721 6.29101 8.5661 5.97824 8.54795H5.94031C5.62441 8.53309 5.37813 8.27416 5.39389 7.97017C5.40982 7.66916 5.68139 7.43448 5.99728 7.4495Z" fill="white"/>
<path d="M7.41865 7.95813C7.42801 7.66916 7.68398 7.44043 7.99035 7.4495C8.34089 7.44653 8.57158 7.66322 8.57486 7.9913C8.57486 8.33142 8.35682 8.54811 8.0094 8.54811C7.65558 8.54811 7.42194 8.33737 7.42194 8.00929C7.41865 7.9913 7.41865 7.97627 7.41865 7.95813Z" fill="white"/>
<path d="M9.41813 7.99427C9.42749 7.68731 9.6961 7.4434 10.0182 7.4495C10.3404 7.4495 10.6246 7.70827 10.609 8.00631C10.5899 8.32829 10.2962 8.59614 10.0056 8.54795H9.99919C9.67705 8.54795 9.41813 8.30123 9.41813 7.99427Z" fill="white"/>
<path fill-rule="evenodd" clip-rule="evenodd" d="M6.01279 7.29953C6.40583 7.30705 6.7357 7.61653 6.72834 8.01077V8.04892C6.70377 8.4333 6.36158 8.71805 5.97413 8.69795H5.93325C5.54074 8.67948 5.2237 8.35568 5.2441 7.96241C5.26466 7.57381 5.61042 7.28291 6.00065 7.2995L6.01279 7.29953ZM5.97824 8.54795C6.29101 8.5661 6.5593 8.33721 6.57834 8.03933V8.00929C6.58475 7.7053 6.32894 7.45561 6.00993 7.4495H5.99728C5.68139 7.43448 5.40982 7.66916 5.39389 7.97017C5.37813 8.27416 5.62441 8.53309 5.94031 8.54795H5.97824ZM7.41865 7.95813C7.42801 7.66916 7.68398 7.44043 7.99035 7.4495C8.34089 7.44653 8.57158 7.66322 8.57486 7.9913C8.57486 8.33142 8.35682 8.54811 8.0094 8.54811C7.65558 8.54811 7.42194 8.33737 7.42194 8.00929C7.41865 7.9913 7.41865 7.97627 7.41865 7.95813ZM7.27203 8.02143C7.26862 7.99632 7.26864 7.97514 7.26865 7.9606C7.26865 7.95976 7.26865 7.95893 7.26865 7.95813V7.95327C7.2809 7.57521 7.61172 7.28972 7.9919 7.29949C8.19733 7.29833 8.38088 7.36164 8.51501 7.48644C8.65048 7.61248 8.72285 7.78959 8.72485 7.98979L8.72487 7.9913C8.72486 8.19402 8.65918 8.37428 8.5278 8.50399C8.3966 8.63352 8.21461 8.69811 8.0094 8.69811C7.80308 8.69811 7.61753 8.63636 7.48185 8.51251C7.34754 8.3899 7.2749 8.21788 7.27203 8.02143ZM9.41813 7.99427C9.42749 7.68731 9.6961 7.4434 10.0182 7.4495C10.3404 7.4495 10.6246 7.70827 10.609 8.00631C10.5899 8.32829 10.2962 8.59614 10.0056 8.54795H9.99919C9.67705 8.54795 9.41813 8.30123 9.41813 7.99427ZM9.99406 8.69793C9.59826 8.69531 9.26813 8.3891 9.26813 7.99427V7.98969C9.28018 7.59454 9.62267 7.29272 10.0197 7.29951C10.4089 7.30027 10.7797 7.61355 10.7588 8.01415L10.7587 8.01517C10.7467 8.21866 10.6485 8.40196 10.5096 8.52731C10.374 8.64971 10.1887 8.72563 9.99406 8.69793Z" fill="white"/>
<path d="M4.9581 5.46967C4.93281 5.73752 4.96746 6.01444 4.94874 6.28525C4.92658 6.55623 4.89177 6.82407 4.83496 7.09192C4.75598 7.47413 4.50642 7.7631 4.16228 8.00388C4.832 8.41926 4.90769 9.06321 4.95186 9.7164C4.97403 10.0686 4.9645 10.4237 5.00243 10.7728C5.03083 11.0436 5.14133 11.1129 5.43523 11.1218C5.55525 11.1248 5.67823 11.1218 5.81746 11.1218V11.9585C4.9489 12.0999 4.2319 11.8653 4.0549 11.164C3.99793 10.9082 3.96 10.6463 3.94753 10.3815C3.92848 10.1016 3.96 9.82169 3.938 9.5418C3.87479 8.77424 3.77053 8.51547 3 8.47933V7.52529C3.05681 7.51324 3.1105 7.50417 3.16731 7.49822C3.59058 7.4771 3.77053 7.35366 3.86215 6.95643C3.90648 6.7338 3.93176 6.50804 3.94112 6.27931C3.97281 5.84297 3.96017 5.39755 4.03898 4.96418C4.14948 4.34119 4.55387 4.04017 5.22671 4.00403C5.41618 3.99496 5.60894 4.00403 5.82682 4.00403V4.85889C5.7352 4.86499 5.65622 4.87688 5.57413 4.87688C5.02772 4.85873 4.99915 5.0363 4.9581 5.46967ZM12.8008 7.4951C12.4344 7.48008 12.2511 7.36274 12.1597 7.03153C12.1027 6.82095 12.0681 6.60113 12.0554 6.38445C12.0301 5.98111 12.0333 5.57481 12.0049 5.17148C11.9385 4.21446 11.2122 3.88044 10.1571 4.04581V4.87656C10.3244 4.87656 10.4539 4.87656 10.5835 4.87954C10.8078 4.88251 10.9784 4.96386 11.0004 5.20167C11.0225 5.41836 11.0225 5.63801 11.0447 5.85783C11.089 6.29433 11.1141 6.73662 11.1931 7.16702C11.2627 7.52216 11.5185 7.78703 11.8374 8.00372C11.2785 8.36184 11.1141 8.87343 11.0857 9.44839C11.07 9.84265 11.0605 10.2399 11.0385 10.6373C11.0194 10.9984 10.8869 11.1157 10.5047 11.1248C10.3973 11.1277 10.293 11.1368 10.173 11.1429V11.9946C10.3973 11.9946 10.6025 12.0067 10.8078 11.9946C11.4458 11.9585 11.8312 11.6636 11.9576 11.0736C12.0113 10.7485 12.0428 10.4206 12.0523 10.0925C12.0743 9.79149 12.0714 9.48751 12.1029 9.18962C12.1502 8.72308 12.3744 8.53049 12.8641 8.50045C12.9115 8.49435 12.9557 8.48544 13 8.47042V7.51622C12.9177 7.50714 12.8608 7.49822 12.8008 7.4951Z" fill="white"/>
</svg>
