<svg width="16" height="16" viewBox="0 0 16 16" fill="none" xmlns="http://www.w3.org/2000/svg">
<rect width="16" height="16" fill="white"/>
<path fill-rule="evenodd" clip-rule="evenodd" d="M6.68415 4.19972C7.19017 3.67162 7.89464 3.34408 8.67375 3.34408C9.70946 3.34408 10.6131 3.92255 11.0943 4.78131C11.5124 4.59417 11.9753 4.49006 12.4623 4.49006C14.3303 4.49006 15.8448 6.02021 15.8448 7.90764C15.8448 9.79529 14.3303 11.3255 12.4623 11.3255C12.2386 11.3256 12.0154 11.3033 11.7961 11.259C11.3723 12.0161 10.5648 12.5276 9.63794 12.5276C9.24994 12.5276 8.88295 12.4379 8.55619 12.2782C8.12662 13.2903 7.12579 14 5.95933 14C4.74461 14 3.70936 13.2301 3.31198 12.1504C3.13832 12.1873 2.9584 12.2066 2.77378 12.2066C1.32752 12.2066 0.155029 11.0201 0.155029 9.55623C0.155029 8.57524 0.681821 7.71869 1.46452 7.26044C1.30338 6.88906 1.21375 6.47914 1.21375 6.04818C1.21375 4.36469 2.57822 3 4.26118 3C5.24927 3 6.12741 3.47057 6.68415 4.19972Z" fill="#00A1E0"/>
<circle cx="5" cy="8" r="1" fill="white"/>
<circle cx="8" cy="8" r="1" fill="white"/>
<circle cx="11" cy="8" r="1" fill="white"/>
</svg>
