<svg width="16" height="16" viewBox="0 0 16 16" fill="none" xmlns="http://www.w3.org/2000/svg">
<g clip-path="url(#clip0)">
<path d="M2 5C2 4.44772 2.44772 4 3 4H15C15.5523 4 16 4.44772 16 5V13C16 13.5523 15.5523 14 15 14H3C2.44772 14 2 13.5523 2 13V5Z" fill="#DC8453"/>
<path d="M0 3C0 2.44772 0.447715 2 1 2H13C13.5523 2 14 2.44772 14 3V11C14 11.5523 13.5523 12 13 12H1C0.447716 12 0 11.5523 0 11V3Z" fill="#E3BC5E"/>
<path d="M0.40206 3.2268C-0.0843725 2.80117 0.216659 2 0.863015 2H13.137C13.7833 2 14.0844 2.80118 13.5979 3.2268L7.6585 8.42381C7.28148 8.75371 6.71852 8.75371 6.3415 8.42381L0.40206 3.2268Z" fill="#F6D891"/>
</g>
</svg>
