<svg width="100" height="100" viewBox="0 0 100 100" fill="none" xmlns="http://www.w3.org/2000/svg">
<path d="M11.7595 60.2426C12.7145 62.1048 13.7172 63.8953 14.7915 65.662C21.5718 64.3967 26.9434 60.8156 30.9782 55.5394C33.8431 51.815 39.4296 56.1124 36.5647 59.8367C31.8376 65.9962 25.9407 70.0787 19.0172 71.9648C19.9483 73.2062 20.9033 74.4238 21.8821 75.6175C25.9169 74.1612 28.8534 72.8242 31.1453 71.7022C34.5115 70.0548 39.1908 66.8318 43.0584 66.8318C44.8729 66.8318 46.8306 67.2855 48.8599 67.8823C58.4811 70.7949 66.6938 74.4954 76.5299 76.3337C77.652 75.0207 78.7025 73.6837 79.729 72.3229C52.4171 66.999 32.7687 52.8178 32.7687 26.3175C32.7687 17.5796 36.1588 7.3615 48.3585 7.3615C58.2185 7.3615 61.3937 13.903 64.0676 21.6621C69.6542 37.801 76.9597 42.7906 93.9819 42.6474C96.1783 34.196 97.2049 25.1477 96.9661 15.6697C94.4594 13.6404 91.2602 11.6827 87.5359 9.91602C88.467 12.7809 89.3503 15.7652 90.1381 18.9166C91.308 23.4765 84.4561 25.2193 83.3102 20.6594C81.9732 15.4071 80.4691 10.6561 78.8457 6.43041C76.2196 5.54706 73.4263 4.75922 70.5614 4.09075C78.416 14.8102 75.1691 30.7581 89.2309 28.1797C93.8625 27.3202 95.1278 34.2676 90.4963 35.1271C60.964 40.5465 79.0844 1.94208 48.263 1.94208C31.2169 1.94208 27.4209 15.5503 27.4209 28.8959C27.4209 32.7635 28.0416 36.7027 28.0416 39.7109C28.0655 50.1439 21.6434 57.8552 11.7595 60.2426Z" fill="#47474A"/>
<path d="M37.0659 89.8942C40.9335 92.7591 45.1115 95.3614 49.5521 97.701C52.7751 96.006 58.5765 92.4249 58.7675 92.21C57.7648 91.7803 57.0247 91.4699 56.571 91.2789C52.9422 89.7032 49.1701 87.7933 45.1831 87.4829C44.1326 87.4113 43.0822 87.4591 42.0556 87.7456C41.1245 88.0082 40.2173 88.3902 39.3578 88.796C38.9042 89.0109 38.4745 89.2257 38.0209 89.4645C37.9254 89.4884 37.1614 89.9658 37.0659 89.8942Z" fill="#F05E47"/>
<path d="M26.8 81.0131C28.2086 82.4216 29.6411 83.8063 31.169 85.1194L32.0762 84.6658C35.4425 83.0185 39.5249 80.1058 43.3925 80.1058C45.207 80.1058 47.9047 80.5356 49.934 81.1563C55.7593 82.923 60.6535 84.7613 66.2639 86.528C67.0756 85.8595 67.7202 85.3343 68.5081 84.6419C69.2482 83.9735 70.4658 82.7559 70.8477 82.3978C70.2031 82.159 64.2107 80.1297 62.8499 79.6522C59.8179 78.6257 56.9291 77.4081 53.8494 76.477C50.889 75.5698 47.475 74.3044 44.3475 74.3044C40.9096 74.0896 37.9254 75.6414 34.8695 77.1216C32.1717 78.3869 29.5456 79.891 26.8 81.0131Z" fill="#F05E47"/>
<path d="M9.65857 10.8471C6.74593 12.3751 4.19141 13.9746 2.13823 15.6697C1.89949 25.2432 2.94995 34.3392 5.17024 42.8384C8.25 41.2388 8.51262 38.2068 8.3455 32.5009C8.08288 24.5508 7.79639 17.7706 9.65857 10.8471Z" fill="#F05E47"/>
<path d="M27.3492 4.37724C24.2934 5.11733 21.3807 6.00067 18.6352 6.97951C16.582 11.1575 15.6987 15.2399 15.3406 19.203C14.3617 30.1135 19.1366 44.6528 7.22339 49.6186C7.70087 51.0033 8.2261 52.3403 8.75133 53.7011C32.2673 46.897 11.4014 20.3251 27.3492 4.37724Z" fill="#F05E47"/>
<path d="M92.2629 50.0245L92.43 49.547L91.666 49.4754C82.9759 48.8308 75.9808 46.7537 70.3226 43.101C65.3329 39.878 62.0622 35.8433 60.3194 30.7342C59.7464 29.0392 59.2689 27.4635 58.7914 25.9594C56.6427 18.9882 55.1148 13.9269 48.4778 13.9269C42.0318 13.9269 38.9043 18.0332 38.9043 26.4846C39.6921 47.5177 54.7567 61.4124 83.6205 67.8346L83.8115 67.8823L84.0741 67.4287L84.2651 67.1183C84.5038 66.7125 84.7425 66.2827 84.9813 65.8291C84.9813 65.8053 85.0052 65.7814 85.0052 65.7814C85.2917 65.2323 85.5781 64.6832 85.8408 64.1341C85.984 63.8715 86.1034 63.6088 86.2466 63.3462C86.3899 63.0597 86.5331 62.7971 86.6763 62.5345L86.8673 62.2003L87.0583 61.8422L87.2971 61.3886L86.4615 61.2453C74.4528 59.1205 64.2825 54.9903 57.0725 49.2366C48.9553 42.7668 45.1354 33.8379 46.0188 23.4288C46.1859 21.5427 47.2841 20.8504 48.2629 20.8504C49.3612 20.8504 50.6742 21.6859 51.1278 23.572C55.2103 40.5942 63.0887 51.9583 89.6129 56.0169L89.8993 56.0646L90.0903 55.5394L90.1381 55.3962L90.4007 54.7516C90.6633 54.107 90.9021 53.5579 91.1169 53.0088C91.3795 52.3403 91.6422 51.6718 91.9764 50.7646L92.048 50.5497L92.2629 50.0245Z" fill="#47474A"/>
</svg>
