<svg width="100" height="100" viewBox="0 0 100 100" fill="none" xmlns="http://www.w3.org/2000/svg">
<path fill-rule="evenodd" clip-rule="evenodd" d="M81.077 70.3143L72.893 64.915L66.0657 76.3198L58.125 73.9985L51.1334 84.6699L51.4916 88.0285L89.5076 81.0228L87.2996 57.2689L81.077 70.3143ZM45.6256 60.074L51.7257 59.2351C52.7119 59.6786 53.3988 59.8476 54.5819 60.1484C56.4256 60.6275 58.5576 61.0881 61.7162 59.4971C62.4512 59.1327 63.9832 57.7325 64.6019 56.934L89.5914 52.4015L92.1406 83.2557L49.3269 90.9716L45.6256 60.074ZM92.0444 48.956L89.5774 49.4259L84.8388 0.463486L4.09125 9.82613L14.0399 90.5545L23.4924 89.1822C22.7372 88.1045 21.5619 86.8005 19.5554 85.132C16.7721 82.82 17.7551 78.8907 19.3988 76.4098C21.5712 72.2184 32.765 66.892 32.1308 60.1934C31.9028 57.7573 31.5167 54.5879 29.2544 52.4139C29.1691 53.3164 29.3226 54.1832 29.3226 54.1832C29.3226 54.1832 28.3938 52.9985 27.9317 51.3843C27.4728 50.764 27.1115 50.5671 26.623 49.7391C26.2741 50.6958 26.3207 51.8061 26.3207 51.8061C26.3207 51.8061 25.5609 50.012 25.4384 48.497C24.9887 49.1747 24.8755 50.4617 24.8755 50.4617C24.8755 50.4617 23.8893 47.6333 24.1142 46.1091C23.6645 44.7833 22.3294 42.1519 22.7062 36.1727C25.1701 37.8986 30.5957 37.4892 32.7091 34.374C33.41 33.3413 33.8922 30.5254 32.3587 24.9741C31.3741 21.4155 28.9365 16.1154 27.986 14.1043L27.8728 14.1865C28.3737 15.8069 29.4064 19.2012 29.8033 20.8495C31.0035 25.8425 31.3244 27.5823 30.7616 29.885C30.2824 31.8868 29.1334 33.1955 26.2214 34.6593C23.3094 36.1277 19.4437 32.5536 19.2003 32.3566C16.3705 30.102 14.181 26.4255 13.9376 24.6377C13.6833 22.6823 15.0648 21.5085 15.7611 19.9098C14.764 20.1936 13.6538 20.7006 13.6538 20.7006C13.6538 20.7006 14.9796 19.3283 16.6139 18.1421C17.2915 17.694 17.6885 17.4087 18.4017 16.8163C17.369 16.7993 16.5302 16.8287 16.5302 16.8287C16.5302 16.8287 18.2529 15.8984 20.0376 15.2207C18.732 15.1634 17.4807 15.2114 17.4807 15.2114C17.4807 15.2114 21.3246 13.4918 24.3591 12.2311C26.4463 11.3752 28.4853 11.6279 29.6312 13.2856C31.1353 15.4564 32.7153 16.6349 36.0631 17.3652C38.1192 16.4535 38.7425 15.9867 41.3258 15.2812C43.599 12.7801 45.3837 12.4575 45.3837 12.4575C45.3837 12.4575 44.4984 13.2701 44.2611 14.5462C45.5497 13.5306 46.9623 12.6824 46.9623 12.6824C46.9623 12.6824 46.4149 13.3569 45.9047 14.4299L46.0226 14.6067C47.5267 13.7042 49.2944 12.994 49.2944 12.994C49.2944 12.994 48.7889 13.6329 48.1965 14.4594C49.3316 14.4501 51.6311 14.5075 52.5243 14.6082C57.7948 14.7245 58.8879 8.98104 60.9099 8.26C63.442 7.35599 64.574 6.80862 68.8893 11.048C72.5906 14.6889 75.484 21.2015 74.0466 22.6606C72.8418 23.8716 70.4663 22.1877 67.8333 18.9066C66.4425 17.1683 65.3896 15.1137 64.8965 12.5025C64.4809 10.2991 62.8621 9.02136 62.8621 9.02136C62.8621 9.02136 63.8002 11.1147 63.8002 12.9584C63.8002 13.9663 63.9258 17.7327 65.5416 19.8478C65.3818 20.1564 65.3074 21.3767 65.1306 21.6108C63.2513 19.3392 59.2151 17.7141 58.5561 17.235C60.7843 19.0601 65.9044 23.2529 67.8706 27.2737C69.7313 31.0743 68.635 34.5585 69.5762 35.4594C69.8445 35.7168 73.5768 40.3687 74.2947 42.7055C75.5476 46.7774 74.3691 51.0587 72.7301 53.7133L68.1512 54.4266C67.4814 54.2405 67.0301 54.1475 66.43 53.8002C66.7619 53.214 67.4193 51.7533 67.4255 51.451L67.1666 50.9982C65.7416 53.0171 63.3552 54.9771 61.372 56.1028C58.7763 57.5744 55.7852 57.3464 53.8376 56.7448C48.3113 55.0407 43.0842 51.3052 41.8236 50.3237C41.8236 50.3237 41.7848 51.1067 42.022 51.2835C43.4145 52.8558 46.6072 55.6981 49.6944 57.6814L43.1152 58.4055L46.2257 82.6215C44.8472 82.8185 44.6317 82.9162 43.123 83.1301C41.7926 78.4302 39.248 75.3615 36.4662 73.5737C34.0132 71.9967 30.6298 71.6416 27.3921 72.2836L27.1843 72.5254C29.4358 72.2913 32.0935 72.6169 34.8242 74.3459C37.5036 76.0407 39.6636 80.4181 40.459 83.0526C41.4778 86.4206 42.1818 90.0242 39.4403 93.8434C37.4912 96.5585 31.8005 98.058 27.2014 94.8125C28.4295 96.788 30.0886 98.4022 32.3246 98.7061C35.6429 99.1574 38.7921 98.5805 40.9599 96.3554C42.8097 94.4528 43.7928 90.4739 43.5339 86.2841L46.463 85.8592L47.5205 93.3797L96 87.5417L92.0444 48.956ZM62.5489 28.5328C62.414 28.8414 62.2 29.0445 62.5194 30.0493L62.538 30.1067L62.5892 30.2369L62.7226 30.5378C63.2978 31.7147 63.9289 32.8234 64.9864 33.3909C65.2593 33.3444 65.5431 33.3134 65.8362 33.2994C66.8285 33.256 67.455 33.4126 67.8504 33.6266C67.8861 33.4281 67.8938 33.1397 67.8721 32.7133C67.7946 31.2231 68.1667 28.6894 65.3028 27.3559C64.222 26.855 62.7055 27.0086 62.2 27.635C62.2915 27.6474 62.3737 27.666 62.4388 27.6877C63.2048 27.9529 62.6869 28.2165 62.5489 28.5328ZM70.5779 42.4357C70.2027 42.2279 68.4474 42.3101 67.2131 42.4574C64.8624 42.7349 62.3241 43.549 61.7689 43.9832C60.7579 44.7647 61.2169 46.1261 61.9643 46.6859C64.0592 48.2505 65.8951 49.3003 67.8318 49.0444C69.0211 48.8878 70.0709 47.0038 70.8136 45.295C71.3222 44.1181 71.3222 42.8481 70.5779 42.4357ZM49.7673 30.3765C50.4294 29.7469 46.4661 28.9205 43.3897 31.0185C41.1211 32.566 41.0483 35.8843 43.2207 37.7652C43.4377 37.9513 43.6176 38.0831 43.7835 38.1916C44.4177 37.8924 45.1403 37.5915 45.973 37.3217C47.3778 36.8658 48.547 36.6301 49.5068 36.5045C49.9658 35.9913 50.5007 35.0873 50.3674 33.4498C50.1844 31.2278 48.5036 31.5798 49.7673 30.3765Z" fill="#632CA6"/>
</svg>
