<svg xmlns="http://www.w3.org/2000/svg" xmlns:xlink="http://www.w3.org/1999/xlink" viewBox="0 0 106 22" fill="#fff" fill-rule="evenodd" stroke="#000" stroke-linecap="round" stroke-linejoin="round"><style><![CDATA[.B{stroke:none}.C{fill-rule:nonzero}]]></style><use xlink:href="#A" x=".5" y=".5"/><symbol id="A" overflow="visible"><path d="M28.061 13.37c-.927.058-1.835-.278-2.5-.927a3.53 3.53 0 0 1-.884-2.543c0-1.11.279-1.988.831-2.628.582-.652 1.428-1.003 2.3-.956a2.81 2.81 0 0 1 2.132.818c.548.62.83 1.431.782 2.257v.782h-4.554a2.24 2.24 0 0 0 .536 1.524 1.87 1.87 0 0 0 1.423.532 5.05 5.05 0 0 0 1.124-.115 5.78 5.78 0 0 0 1.12-.378v1.176c-.341.164-.701.284-1.071.358a6.66 6.66 0 0 1-1.239.099zm-.266-5.963a1.46 1.46 0 0 0-1.107.437 2.09 2.09 0 0 0-.493 1.275h3.092a1.9 1.9 0 0 0-.407-1.278c-.28-.296-.677-.455-1.084-.434zm6.006 5.839h-1.446V3.659h1.446zm6.334 0l-.292-.946h-.046a2.78 2.78 0 0 1-.986.844 3.13 3.13 0 0 1-1.281.227 2.18 2.18 0 0 1-1.57-.542c-.394-.41-.597-.967-.562-1.534a1.8 1.8 0 0 1 .782-1.59q.785-.536 2.385-.585l1.176-.036v-.365a1.38 1.38 0 0 0-.306-.986 1.24 1.24 0 0 0-.946-.329c-.34-.002-.678.049-1.002.151a8.26 8.26 0 0 0-.933.375l-.48-1.028a5.01 5.01 0 0 1 1.212-.44 5.52 5.52 0 0 1 1.245-.151q1.314 0 1.971.568c.44.378.657.969.657 1.777v4.6zm-2.159-.986a1.79 1.79 0 0 0 1.268-.44 1.59 1.59 0 0 0 .476-1.235v-.591l-.874.039a2.96 2.96 0 0 0-1.488.329 1.04 1.04 0 0 0-.467.933c-.016.263.084.519.273.703.227.188.517.282.811.263zm9.791-.953c.031.6-.242 1.175-.726 1.531a3.49 3.49 0 0 1-2.096.532 4.93 4.93 0 0 1-2.188-.414v-1.249a5.4 5.4 0 0 0 2.237.552q1.334 0 1.337-.805a.66.66 0 0 0-.148-.434 1.75 1.75 0 0 0-.486-.355c-.306-.159-.62-.3-.943-.421a4.35 4.35 0 0 1-1.593-.91 1.7 1.7 0 0 1-.417-1.183 1.56 1.56 0 0 1 .706-1.36 3.35 3.35 0 0 1 1.919-.483 5.42 5.42 0 0 1 2.274.486l-.466 1.091a5.1 5.1 0 0 0-1.856-.457c-.762 0-1.147.22-1.147.657.003.219.115.423.299.542a6.64 6.64 0 0 0 1.314.611 5.89 5.89 0 0 1 1.225.598 1.78 1.78 0 0 1 .562.621c.132.263.198.554.194.848zm4.58.895a3.49 3.49 0 0 0 1.058-.168v1.091a2.96 2.96 0 0 1-.618.174 4.14 4.14 0 0 1-.785.072q-2.06 0-2.06-2.168V7.529h-.93v-.657l.986-.529.493-1.442h.894v1.518h1.938v1.094h-1.938v3.647a1.03 1.03 0 0 0 .26.775c.19.178.443.274.703.266zm2.333-7.557a.8.8 0 0 1 .214-.598c.167-.147.386-.222.608-.207a.81.81 0 0 1 .591.207.79.79 0 0 1 .213.598.78.78 0 0 1-.213.582.79.79 0 0 1-.591.213.81.81 0 0 1-.608-.213c-.148-.156-.225-.367-.214-.582zm1.534 8.618h-1.449V6.436h1.449zm5.293.108c-1.028 0-1.814-.302-2.349-.903s-.805-1.465-.805-2.589.283-2.027.841-2.628 1.37-.923 2.431-.923a4.55 4.55 0 0 1 1.939.401l-.437 1.163c-.48-.207-.993-.327-1.515-.355q-1.771 0-1.768 2.346a2.83 2.83 0 0 0 .44 1.722 1.52 1.52 0 0 0 1.291.575 3.69 3.69 0 0 0 1.83-.48v1.262c-.257.153-.536.264-.828.328-.353.066-.712.093-1.071.082zm8.021-2.064c.031.6-.242 1.175-.726 1.531a3.49 3.49 0 0 1-2.083.532 4.93 4.93 0 0 1-2.188-.414v-1.249a5.4 5.4 0 0 0 2.237.552q1.337 0 1.337-.805a.66.66 0 0 0-.148-.434 1.75 1.75 0 0 0-.486-.355c-.306-.159-.62-.3-.943-.421a4.35 4.35 0 0 1-1.593-.91 1.7 1.7 0 0 1-.414-1.183c-.019-.547.252-1.064.713-1.36a3.35 3.35 0 0 1 1.919-.483c.784-.004 1.56.161 2.273.486l-.466 1.091a5.1 5.1 0 0 0-1.856-.457c-.762 0-1.147.22-1.147.657.003.219.115.423.299.542a6.64 6.64 0 0 0 1.314.611c.43.151.842.352 1.226.598a1.78 1.78 0 0 1 .568.624 1.83 1.83 0 0 1 .164.844zm13.644 1.939l-.296-.946h-.049a2.77 2.77 0 0 1-.986.844 3.12 3.12 0 0 1-1.281.227 2.17 2.17 0 0 1-1.567-.542 2.02 2.02 0 0 1-.565-1.534c-.035-.63.261-1.233.782-1.59q.785-.536 2.385-.585l1.176-.036v-.365a1.38 1.38 0 0 0-.306-.986 1.24 1.24 0 0 0-.943-.328 3.29 3.29 0 0 0-1.005.151c-.316.106-.626.231-.927.375l-.47-1.035a5.11 5.11 0 0 1 1.212-.44 5.54 5.54 0 0 1 1.245-.151q1.314 0 1.971.568.657.568.657 1.777v4.6zm-2.155-.986a1.78 1.78 0 0 0 1.265-.44 1.59 1.59 0 0 0 .476-1.235v-.591l-.867.04a2.98 2.98 0 0 0-1.488.329 1.04 1.04 0 0 0-.483.946c-.017.262.082.519.269.703.234.187.53.276.828.25zm13.673 1.111q-1.547 0-2.349-.903-.802-.903-.792-2.589c0-1.147.283-2.027.841-2.628s1.37-.923 2.431-.923a4.57 4.57 0 0 1 1.942.401l-.44 1.163c-.48-.207-.993-.327-1.515-.355q-1.768 0-1.768 2.346a2.82 2.82 0 0 0 .44 1.722 1.52 1.52 0 0 0 1.291.575 3.69 3.69 0 0 0 1.83-.48v1.262a2.82 2.82 0 0 1-.828.328 4.99 4.99 0 0 1-1.084.082zm-20.324.001c-.927.058-1.835-.278-2.5-.927a3.53 3.53 0 0 1-.884-2.543c0-1.11.279-1.988.831-2.628.582-.652 1.428-1.003 2.3-.956a2.81 2.81 0 0 1 2.132.818 3.14 3.14 0 0 1 .782 2.257v.782h-4.554a2.24 2.24 0 0 0 .536 1.524 1.87 1.87 0 0 0 1.423.532 5.05 5.05 0 0 0 1.124-.115 5.78 5.78 0 0 0 1.12-.378v1.176c-.341.164-.701.284-1.071.358a6.66 6.66 0 0 1-1.239.099zM74.1 7.409a1.46 1.46 0 0 0-1.107.437 2.09 2.09 0 0 0-.493 1.275h3.092a1.9 1.9 0 0 0-.407-1.278c-.281-.296-.677-.455-1.084-.434z" fill="#000" class="B C"/><path d="M1.057 5.906h13.939c1.536 0 2.908-.704 3.828-1.804A10.48 10.48 0 0 0 10.5 0a10.5 10.5 0 0 0-9.443 5.906" fill="#f0bf1a" class="B C"/><path d="M13.814 7.547H.424A10.5 10.5 0 0 0 0 10.5a10.5 10.5 0 0 0 .424 2.953h13.39c1.608 0 2.953-1.313 2.953-2.953a2.94 2.94 0 0 0-2.953-2.953" fill="#07a5de" class="B C"/><path d="M18.859 16.852c-.915-1.075-2.275-1.758-3.798-1.758H1.057A10.5 10.5 0 0 0 10.5 21c3.411 0 6.441-1.628 8.359-4.148" fill="#3ebeb0" class="B C"/><path d="M.424 7.547C.15 8.484 0 9.474 0 10.5s.15 2.016.424 2.953h8.764a11.74 11.74 0 0 0 .361-2.953 11.74 11.74 0 0 0-.361-2.953H.424z" fill="#231f20" class="B C"/><path d="M5.217 1.411C3.445 2.461 1.969 4.036 1.05 5.906h7.744c-.788-1.805-2.034-3.314-3.577-4.495" fill="#d7a229" class="B C"/><path d="M5.545 19.753a11.71 11.71 0 0 0 3.478-4.659H1.05c.984 1.969 2.559 3.609 4.495 4.659" fill="#019b8f" class="B C"/><path d="M90.506 6.795v1.041q-.306-.042-.663-.042-1.326 0-1.8.938v4.648h-1.348V6.831h1.312l.022.757q.663-.878 1.88-.878.393 0 .597.085zm9.323-4.084V6.71q.841-1.032 2.188-1.032 2.345 0 2.365 2.646v4.888h-1.265V8.316q-.007-.8-.366-1.183-.359-.383-1.118-.383-.615 0-1.08.328-.465.328-.725.861v5.271h-1.265V2.71h1.265z" class="B" fill="#000"/></symbol></svg>