<svg width="16" height="16" viewBox="0 0 16 16" fill="none" xmlns="http://www.w3.org/2000/svg">
<path d="M8.70968 7.21171L2 13L3.80139 1.291C3.87113 0.837684 4.46342 0.709621 4.71421 1.09363L8.70968 7.21171Z" fill="#F57F17"/>
<path d="M2 13L12.3666 4.04699C12.6529 3.79974 13.0995 3.94767 13.1815 4.31694L14.6717 11.0227C14.8659 11.8966 14.4557 12.7931 13.6675 13.2175L9.37943 15.5265C8.82575 15.8246 8.16408 15.845 7.59311 15.5814L2 13Z" fill="#FFCA28"/>
<path d="M2 13L8.02837 3.26186C8.2344 2.92905 8.72567 2.95133 8.90072 3.30143L11.936 9.37207C12.2242 9.9484 11.9001 10.6428 11.2732 10.7921L2 13Z" fill="#FFA000"/>
</svg>
