<svg width="145" height="51" viewBox="0 0 145 51" fill="none" xmlns="http://www.w3.org/2000/svg">
<path fill-rule="evenodd" clip-rule="evenodd" d="M24.2599 24.4339L20.4913 26.459L27.6041 26.0823V33.667C26.1907 34.2319 24.6372 34.8442 21.6216 34.8442C11.3533 34.8442 4.94579 26.5067 4.94579 17.6509C4.94579 9.40713 10.5516 3.75449 17.9956 3.75449C23.5524 3.75449 26.4741 6.62777 28.0757 8.1816L26.8982 10.0665L28.5466 9.68987L32.4563 5.96899C31.4199 5.26119 29.7708 4.03723 26.2381 3.04732C24.0246 2.43597 21.5748 2.05835 19.0311 2.05835C7.01923 2.05835 0 10.5372 0 19.676C0 27.1658 4.94578 36.7288 17.9475 36.7288C20.5381 36.7288 22.9879 36.3518 25.7204 35.9274L32.4563 34.3732V28.6267C32.4563 28.1558 32.5031 26.7895 32.5502 26.3654C32.6441 25.9884 32.6922 25.8944 33.0221 25.6126L34.2463 24.4342H24.2599V24.4339Z" fill="#9A9A9A"/>
<path fill-rule="evenodd" clip-rule="evenodd" d="M48.6652 12.0593C41.0271 12.0593 35.6506 17.6874 35.6506 24.2693C35.6506 29.8971 39.9216 36.1266 47.9113 36.1266C56.1014 36.1266 60.673 29.8462 60.673 23.9175C60.673 17.8376 56.0508 12.0593 48.6652 12.0593ZM54.1913 32.0576C53.0361 33.6651 51.0268 34.6199 49.0671 34.6199C42.9872 34.6199 40.5245 26.4295 40.5245 21.4554C40.5245 19.295 40.8763 17.0839 42.8354 15.3249C44.0421 14.2703 45.7005 13.6165 47.3587 13.6165C53.5887 13.6165 55.6989 22.0577 55.6989 26.4794C55.6989 28.4395 55.3976 30.4494 54.1913 32.0576Z" fill="#9A9A9A"/>
<path fill-rule="evenodd" clip-rule="evenodd" d="M75.3951 12.0593C67.7588 12.0593 62.3823 17.6874 62.3823 24.2693C62.3823 29.8971 66.6533 36.1266 74.6423 36.1266C82.8318 36.1266 87.4056 29.8462 87.4056 23.9175C87.4056 17.8376 82.7828 12.0593 75.3951 12.0593ZM80.923 32.0576C79.7675 33.6651 77.7569 34.6199 75.7972 34.6199C69.7182 34.6199 67.2562 26.4295 67.2562 21.4554C67.2562 19.295 67.6087 17.0839 69.5671 15.3249C70.7732 14.2703 72.4316 13.6165 74.0888 13.6165C80.3198 13.6165 82.4306 22.0577 82.4306 26.4794C82.4306 28.4395 82.129 30.4494 80.923 32.0576Z" fill="#9A9A9A"/>
<path fill-rule="evenodd" clip-rule="evenodd" d="M106.85 34.469L105.041 33.0616C104.489 32.6098 103.735 32.0073 103.735 30.9018C103.735 29.7972 104.489 29.0925 105.143 28.4397C107.252 26.7813 109.362 25.0229 109.362 21.3049C109.362 17.486 106.95 15.476 105.795 14.5213H108.91L112.125 12.7126H101.775C99.0615 12.7126 95.6466 13.1138 92.7821 15.476C90.6207 17.3349 89.5654 19.8974 89.5654 22.209C89.5654 26.1284 92.5807 30.0978 97.9063 30.0978C98.4096 30.0978 98.9616 30.0469 99.5154 29.9973C99.2632 30.6002 99.0125 31.1025 99.0125 31.957C99.0125 33.5146 99.8154 34.469 100.518 35.3735C98.2588 35.5243 94.0371 35.775 90.922 37.6841C87.9576 39.4434 87.0531 42.0053 87.0531 43.8146C87.0531 47.5326 90.5698 51 97.8554 51C106.498 51 111.07 46.2267 111.07 41.5039C111.07 38.0363 109.062 36.3273 106.85 34.469ZM100.268 28.691C95.9463 28.691 93.9866 23.1128 93.9866 19.7463C93.9866 18.4404 94.2373 17.0835 95.0927 16.0283C95.8976 15.0233 97.3034 14.3698 98.6094 14.3698C102.781 14.3698 104.941 19.9977 104.941 23.6155C104.941 24.5196 104.839 26.1281 103.686 27.2842C102.881 28.0869 101.523 28.691 100.268 28.691ZM100.318 48.8885C94.9419 48.8885 91.4742 46.3266 91.4742 42.76C91.4742 39.1918 94.6912 37.9863 95.7955 37.5839C97.9063 36.8802 100.62 36.779 101.072 36.779C101.574 36.779 101.826 36.779 102.228 36.8299C106.047 39.5436 107.704 40.8995 107.704 43.4633C107.704 46.5782 105.143 48.8885 100.318 48.8885Z" fill="#9A9A9A"/>
<path fill-rule="evenodd" clip-rule="evenodd" d="M121.572 34.1175C119.914 33.9671 119.563 33.6655 119.563 31.7054V20.0982C119.563 12.9634 119.614 6.83325 120.015 2.96534C120.215 1.20606 120.718 0.90446 122.275 0H115.091L111.322 1.80924H115.24C115.191 4.12018 114.989 7.33653 114.939 9.8988C114.79 15.1242 114.739 20.7021 114.739 24.6209V32.8116C114.739 33.8153 114.537 33.9671 113.382 35.4738H122.275L124.135 34.3686C123.282 34.2683 122.428 34.2184 121.572 34.1175Z" fill="#9A9A9A"/>
<path fill-rule="evenodd" clip-rule="evenodd" d="M138.354 33.6146C133.581 33.6146 129.261 29.8972 128.004 23.516L131.873 23.2134L143.679 18.4404C143.329 17.2843 142.675 15.1236 140.165 13.4658C138.657 12.511 136.797 12.059 134.99 12.059C129.813 12.059 123.483 15.8779 123.483 23.6655C123.483 27.4338 125.04 31.7551 128.607 34.268C131.168 36.1263 133.682 36.2268 135.29 36.2268C136.797 36.2268 138.505 36.0261 140.165 35.2724C140.715 35.0207 141.27 34.6692 141.821 34.3679L144.486 31.8556C142.777 32.7107 140.917 33.6146 138.354 33.6146ZM127.803 20.7018C127.803 15.2753 131.57 13.7174 133.581 13.7174C136.296 13.7174 138.556 16.0287 138.556 18.0386C138.556 18.7424 138.053 19.0433 137.099 19.3958L127.954 23.3649C127.902 22.4598 127.803 21.5563 127.803 20.7018Z" fill="#9A9A9A"/>
</svg>
