<svg xmlns="http://www.w3.org/2000/svg" xmlns:xlink="http://www.w3.org/1999/xlink" viewBox="0 0 81 57" fill="#fff" fill-rule="evenodd" stroke="#000" stroke-linecap="round" stroke-linejoin="round"><style><![CDATA[.B{fill:#669df6}.C{fill:#4285f4}.D{fill:#aecbfa}]]></style><use xlink:href="#A" x=".5" y=".5"/><symbol id="A" overflow="visible"><g stroke="none" fill-rule="nonzero"><path d="M20 4l4-4H0l4 4h16z" class="D"/><path d="M20 4v16l4 4V0l-4 4z" class="B"/><path d="M4 4L0 0v24l4-4V4z" class="D"/><path d="M4 20l-4 4h24l-4-4H4z" class="C"/><path d="M4 4h16v16H4z" class="D"/><path d="M48 4l4-4H28l4 4h16z" class="C"/><path d="M48 4v16l4 4V0l-4 4z" class="B"/><path d="M32 4l-4-4v24l4-4V4z" class="C"/><path d="M32 20l-4 4h24l-4-4H32z" class="B"/><path d="M32 4h16v16H32z"/><path d="M76 4l4-4H56l4 4h16z" class="C"/><path d="M76 4v16l4 4V0l-4 4z" class="B"/><path d="M60 4l-4-4v24l4-4V4z" class="C"/><path d="M60 20l-4 4h24l-4-4H60z" class="B"/><path d="M60 4h16v16H60z"/><path d="M20 36l4-4H0l4 4h16z" class="C"/><path d="M20 36v16l4 4V32l-4 4z" class="B"/><path d="M4 36l-4-4v24l4-4V36z" class="C"/><path d="M4 52l-4 4h24l-4-4H4z" class="B"/><path d="M4 36h16v16H4z"/><path d="M48 36l4-4H28l4 4h16z" class="D"/><path d="M48 36v16l4 4V32l-4 4z" class="B"/><path d="M32 36l-4-4v24l4-4V36z" class="D"/><path d="M32 52l-4 4h24l-4-4H32z" class="C"/><path d="M32 36h16v16H32zm44 0l4-4H56l4 4h16z" class="D"/><path d="M76 36v16l4 4V32l-4 4z" class="B"/><path d="M60 36l-4-4v24l4-4V36z" class="D"/><path d="M60 52l-4 4h24l-4-4H60z" class="C"/><path d="M60 36h16v16H60z" class="D"/></g></symbol></svg>