<svg width="16" height="16" viewBox="0 0 16 16" fill="none" xmlns="http://www.w3.org/2000/svg">
<rect x="1" y="1" width="14" height="14" rx="2" fill="#5D9E7E"/>
<path fill-rule="evenodd" clip-rule="evenodd" d="M8.5 7.35486H11V5.20431L8.5 5.20431V7.35486ZM7.5 7.35486V5.20431H5V7.35486H7.5ZM5 8.55916H7.5V10.7957H5V8.55916ZM4 5.20431C4 4.53919 4.44772 4 5 4H11C11.5523 4 12 4.53919 12 5.20431V8V10.7957C12 11.4608 11.5523 12 11 12H5C4.44772 12 4 11.4608 4 10.7957V7.95701V5.20431ZM8.5 10.7957V8.55916H11V10.7957L8.5 10.7957Z" fill="white"/>
</svg>
