<?xml version="1.0" ?><svg id="Icons" style="enable-background:new 0 0 32 32;" version="1.1" viewBox="0 0 32 32" xml:space="preserve" xmlns="http://www.w3.org/2000/svg" xmlns:xlink="http://www.w3.org/1999/xlink"><style type="text/css">
	.st0{fill:none;stroke:#000000;stroke-width:2;stroke-linecap:round;stroke-linejoin:round;stroke-miterlimit:10;}
</style><g><path d="M30,2c-4.7,0-9,2.6-11.2,6.7l-7.4,13.7C9.6,25.8,5.9,28,2,28c-0.6,0-1,0.4-1,1s0.4,1,1,1c4.7,0,9-2.6,11.2-6.7l7.4-13.7   C22.4,6.2,26.1,4,30,4c0.6,0,1-0.4,1-1S30.6,2,30,2z"/><path d="M2,4h3c0.6,0,1-0.4,1-1S5.6,2,5,2H2C1.4,2,1,2.4,1,3S1.4,4,2,4z"/><path d="M9,4h3c0.6,0,1-0.4,1-1s-0.4-1-1-1H9C8.4,2,8,2.4,8,3S8.4,4,9,4z"/><path d="M16,4h3c0.6,0,1-0.4,1-1s-0.4-1-1-1h-3c-0.6,0-1,0.4-1,1S15.4,4,16,4z"/><path d="M15,28h-3c-0.6,0-1,0.4-1,1s0.4,1,1,1h3c0.6,0,1-0.4,1-1S15.6,28,15,28z"/><path d="M22,28h-3c-0.6,0-1,0.4-1,1s0.4,1,1,1h3c0.6,0,1-0.4,1-1S22.6,28,22,28z"/><path d="M29,28h-3c-0.6,0-1,0.4-1,1s0.4,1,1,1h3c0.6,0,1-0.4,1-1S29.6,28,29,28z"/><path d="M22,16h-3c-0.6,0-1,0.4-1,1s0.4,1,1,1h3c0.6,0,1-0.4,1-1S22.6,16,22,16z"/><path d="M29,16h-3c-0.6,0-1,0.4-1,1s0.4,1,1,1h3c0.6,0,1-0.4,1-1S29.6,16,29,16z"/><path d="M2,18h3c0.6,0,1-0.4,1-1s-0.4-1-1-1H2c-0.6,0-1,0.4-1,1S1.4,18,2,18z"/><path d="M9,18h3c0.6,0,1-0.4,1-1s-0.4-1-1-1H9c-0.6,0-1,0.4-1,1S8.4,18,9,18z"/></g></svg>