<svg width="161" height="41" viewBox="0 0 161 41" fill="none" xmlns="http://www.w3.org/2000/svg">
<path d="M37.0009 14.4522C38.7466 14.4522 40.4213 12.9883 40.7126 11.1822C41.0569 9.42426 39.8737 7.96031 38.1294 7.96031C36.3845 7.96031 34.7095 9.42426 34.4138 11.1822C34.0734 12.9883 35.208 14.4522 37.0009 14.4522ZM155.459 19.6774H159.364C159.899 19.6774 160.213 19.4585 160.333 18.9555C160.52 18.1764 160.712 17.3986 160.91 16.6221C161.026 16.1694 160.764 15.8262 160.266 15.8262H156.412C156.69 14.7138 157.771 11.1022 157.771 8.7476C157.771 4.04528 153.807 0.0455114 148.182 0.0455114C141.831 0.0455114 137.698 4.33954 137.698 10.3818C137.698 12.1442 138.351 14.1985 139.16 15.4728C138.812 15.4528 138.463 15.4428 138.114 15.443C133.288 15.443 130.248 18.0803 130.248 21.9179C130.248 25.5196 133.067 26.9192 135.72 27.8506C138.077 28.6782 140.248 29.0632 140.248 30.9182C140.248 32.169 139.054 32.9029 136.716 32.9029C133.943 32.9029 132.419 31.5873 132.031 31.0882C132.294 30.8803 132.685 30.3851 132.685 29.5602C132.685 28.4062 131.88 27.4643 130.386 27.4643C129.121 27.4643 128.052 28.5032 127.784 29.8699C125.753 31.5436 123.536 32.6283 120.392 32.6283C117.297 32.6283 115.69 31.0063 115.69 27.555C116.416 27.7776 118.305 28.045 119.554 28.045C124.796 28.045 128.368 25.6459 128.368 20.8416C128.368 18.2582 126.117 15.545 121.663 15.545H121.653C115.794 15.545 112.513 19.2832 111.08 23.3949C110.679 23.2974 110.277 23.2029 109.874 23.1114C110.194 22.1994 110.424 21.1424 110.424 19.9706C110.424 17.9399 109.176 15.545 105.835 15.545C103.508 15.545 101.301 17.0804 99.771 19.3816C100.152 17.8805 100.404 16.8808 100.42 16.8138C100.52 16.4212 100.358 15.9839 99.75 15.9839H96.3213C95.8326 15.9839 95.4878 16.1578 95.3489 16.7184C95.2557 17.0921 94.0777 21.7484 92.9308 26.2823C92.2084 29.1092 88.4715 32.6283 83.7747 32.6283C80.6786 32.6283 79.0732 30.8996 79.0732 27.447C79.8833 27.7719 81.6884 28.0447 82.9368 28.0447C88.3916 28.0447 91.7507 25.6457 91.7507 20.8413C91.7507 18.2579 89.4995 15.5448 85.0449 15.5448H85.0353C78.4386 15.5448 74.3977 20.7061 73.713 26.5582C73.4281 28.991 71.3899 32.3317 69.1803 32.3317C68.1037 32.3317 67.5034 31.6506 67.5034 30.4942C67.5034 29.4956 68.2014 27.0536 68.9663 23.9934C69.2226 22.9696 69.6115 21.4079 70.0428 19.6774H73.6291C74.163 19.6774 74.4761 19.4585 74.5974 18.9555C74.769 18.2312 75.0839 16.9676 75.1733 16.6221C75.2888 16.1694 75.0286 15.8262 74.5288 15.8262H71.0022C71.0022 15.8262 72.6258 9.30028 72.6645 9.13262C72.8208 8.46904 72.2696 8.08612 71.6929 8.20827C71.6929 8.20827 68.9671 8.74577 68.4615 8.85196C67.9534 8.95554 67.559 9.23672 67.3754 9.97458L65.9318 15.8262H63.1C62.5662 15.8262 62.2522 16.0456 62.1325 16.5476C61.9444 17.3265 61.7524 18.1045 61.5566 18.8815C61.4395 19.3342 61.701 19.6774 62.2003 19.6774H64.9773C64.9576 19.7574 63.9743 23.5255 63.1789 26.8998C62.8045 28.5226 61.5507 32.3196 59.4973 32.3196C58.2708 32.3196 57.7525 31.6963 57.7525 30.3595C57.7525 28.2542 59.8097 22.984 59.8097 20.5926C59.8097 17.3982 58.1085 15.5474 54.6232 15.5474C52.4263 15.5474 50.1484 16.9763 49.183 18.2304C49.183 18.2304 49.4759 17.2038 49.5761 16.8091C49.6831 16.3922 49.4611 15.9826 48.9176 15.9826H45.51C44.7847 15.9826 44.5843 16.3731 44.4778 16.8026C44.4353 16.975 43.2074 21.8321 42.0286 26.4949C41.2223 29.6878 39.2633 32.3557 37.1687 32.3557C36.0916 32.3557 35.6121 31.6749 35.6121 30.5185C35.6121 29.5194 36.2529 27.0539 37.0176 23.9939C37.9479 20.2685 38.7686 17.2007 38.8564 16.8424C38.9709 16.3831 38.7671 15.9829 38.1795 15.9829H34.7513C34.1302 15.9829 33.9085 16.3111 33.7776 16.7673C33.7776 16.7673 32.8128 20.4466 31.791 24.5427C31.049 27.5153 30.2295 30.5431 30.2295 31.9657C30.2295 34.5044 31.3611 36.418 34.4719 36.418C36.8729 36.418 38.7731 35.1915 40.224 33.6287C40.0108 34.4746 39.8747 35.01 39.861 35.0647C39.7358 35.5483 39.8875 35.9757 40.453 35.9757H43.9611C44.5718 35.9757 44.8066 35.7283 44.934 35.1918C45.0569 34.6799 47.677 24.2984 47.677 24.2984C48.3695 21.5096 50.0824 19.663 52.4922 19.663C53.6349 19.663 54.624 20.4252 54.5095 21.9064C54.3822 23.5359 52.4315 29.3899 52.4315 31.9592C52.4315 33.9039 53.1473 36.4198 56.7814 36.4198C59.2585 36.4198 61.082 35.2235 62.408 33.6795C62.8936 35.3181 64.1799 36.4198 66.5393 36.4198C70.4606 36.4198 72.8242 34.077 74.2128 31.7238C75.3651 34.4579 78.0639 36.4185 82.0215 36.4185C86.0552 36.4185 89.1768 34.7056 91.389 32.3769L90.6991 35.1029C90.5737 35.5938 90.7858 35.9799 91.3581 35.9799H94.8301C95.3055 35.9799 95.6439 35.7364 95.7672 35.2334C95.8282 34.9865 96.3299 33.0334 97.0385 30.2583C98.3936 24.9478 100.572 19.4383 103.844 19.4383C104.998 19.4383 105.472 20.0883 105.472 21.1123C105.472 21.5952 105.332 22.0123 105.212 22.236C103.626 21.9184 102.35 22.7073 102.35 24.4135C102.35 25.5251 103.511 26.5355 105.078 26.5355C106.276 26.5355 107.266 26.2397 108.055 25.7043C108.833 25.8657 109.608 26.0356 110.382 26.2138C110.263 26.9838 110.202 27.7618 110.2 28.5411C110.2 32.8035 113.221 36.4183 118.636 36.4183C122.88 36.4183 125.792 34.8544 128.306 32.8495C129.515 34.8413 132.566 36.451 136.569 36.451C142.055 36.451 145.167 33.5772 145.167 29.7786C145.167 26.3404 142.365 25.0749 139.476 24.0214C137.127 23.1666 135.168 22.7018 135.168 21.0297C135.168 19.6591 136.239 19.0321 138.075 19.0321C139.266 19.0321 140.16 19.2905 140.637 19.4255C141.111 20.6195 142.091 21.9417 143.764 21.9417C145.18 21.9417 145.815 20.8139 145.815 19.7752C145.815 16.8185 140.926 16.5086 140.926 10.1676C140.926 6.2246 143.141 2.97184 147.728 2.97184C150.915 2.97184 152.996 5.00782 152.996 8.2938C152.996 11.003 151.365 15.8259 151.365 15.8259H148.593C148.06 15.8259 147.745 16.0454 147.625 16.5473C147.437 17.3264 147.245 18.1044 147.048 18.8812C146.931 19.334 147.193 19.6771 147.692 19.6771H150.4C150.4 19.6771 147.601 30.0741 147.601 31.9649C147.601 34.5036 149.021 36.4167 152.134 36.4167C156.535 36.4167 159.286 33.5351 160.482 29.3449C160.575 29.0208 160.393 28.7569 160.067 28.7569H158.387C158.052 28.7569 157.858 28.9494 157.773 29.2795C157.394 30.767 156.454 32.3319 154.602 32.3319C153.526 32.3319 152.926 31.6508 152.926 30.4947C152.926 29.4958 153.582 27.1572 154.39 23.9939C154.774 22.4876 155.459 19.6774 155.459 19.6774ZM120.751 19.4998C122.307 19.4998 123.047 20.5429 123.047 21.7861C123.047 23.8888 121.428 25.1709 118.896 25.1709C117.99 25.1709 116.723 24.9546 115.975 24.7035C116.289 22.7698 117.679 19.4998 120.751 19.4998ZM84.1335 19.4998C85.8374 19.4998 86.4289 20.5429 86.4289 21.7861C86.4289 23.8888 84.8107 25.1709 82.2789 25.1709C81.3724 25.1709 80.1056 24.9546 79.3578 24.7035C79.6704 22.7698 80.9025 19.4998 84.1335 19.4998ZM16.7707 0C5.6634 0 0.0629883 8.02203 0.0629883 14.7117C0.0629883 18.7622 1.58532 22.3657 4.85043 23.7083C5.38583 23.929 5.86541 23.7159 6.02068 23.1187C6.12869 22.7055 6.38419 21.6632 6.49818 21.2287C6.65501 20.6381 6.59399 20.4309 6.16193 19.9162C5.22044 18.7975 4.61882 17.3493 4.61882 15.2978C4.61882 9.34631 9.03912 4.01834 16.1292 4.01834C22.4075 4.01834 25.8565 7.88262 25.8565 13.0435C25.8565 19.8338 22.8736 25.5648 18.4447 25.5648C15.9991 25.5648 14.1683 23.5273 14.7551 21.0284C15.4577 18.045 16.8188 14.8252 16.8188 12.6718C16.8188 10.7441 15.7916 9.13628 13.6658 9.13628C11.1657 9.13628 9.15726 11.7417 9.15726 15.2319C9.15726 17.4549 9.90298 18.9584 9.90298 18.9584C9.90298 18.9584 7.34438 29.8787 6.89596 31.7913C6.00276 35.6001 6.76146 40.2692 6.8256 40.7408C6.86351 41.0201 7.22001 41.0866 7.38151 40.8758C7.61208 40.5726 10.5895 36.8694 11.6021 33.1689C11.8885 32.1211 13.2465 26.6958 13.2465 26.6958C14.0587 28.2566 16.4327 29.6313 18.9573 29.6313C26.4723 29.6313 31.5714 22.7295 31.5714 13.4912C31.5714 6.50577 25.6978 0 16.7707 0Z" fill="#9A9A9A"/>
</svg>
