<svg xmlns="http://www.w3.org/2000/svg" xmlns:xlink="http://www.w3.org/1999/xlink" viewBox="0 0 66.518 56.518" fill="#fff" fill-rule="evenodd" stroke="#000" stroke-linecap="round" stroke-linejoin="round"><style><![CDATA[.B{fill-rule:nonzero}]]></style><use xlink:href="#A" x=".5" y="1.018"/><symbol id="A" overflow="visible"><g stroke="none"><g fill="#5b87da" class="B"><use xlink:href="#C"/><use xlink:href="#D"/><use xlink:href="#E"/><path d="M57.216 30.393c-1.557-1.557-1.558-4.065 0-5.622s4.065-1.557 5.622 0 1.557 4.065 0 5.622-4.065 1.557-5.622 0z"/></g><g fill="#1edcff"><use xlink:href="#F" class="B"/><use xlink:href="#C" x="-8.193" y="8.202" class="B"/><use xlink:href="#D" x="-8.2" y="8.192" class="B"/><use xlink:href="#E" x="-8.201" y="8.188" class="B"/><use xlink:href="#G" class="B"/></g><g fill="#000"><path d="M1.018 4.638c-.91-.909-.91-2.374 0-3.283s2.374-.91 3.284 0 .91 2.374 0 3.284-2.374.91-3.283 0z" class="B"/><use xlink:href="#F" x="-8.195" y="8.196" class="B"/><use xlink:href="#C" x="-16.384" y="16.402" class="B"/><use xlink:href="#D" x="-16.387" y="16.397" class="B"/><use xlink:href="#E" x="-16.393" y="16.394" class="B"/><use xlink:href="#G" x="-8.202" y="8.187" class="B"/></g><g fill="#5b87da"><use xlink:href="#H" class="B"/><use xlink:href="#H" x="-8.196" y="8.196" class="B"/><use xlink:href="#H" x="-16.389" y="16.398" class="B"/><use xlink:href="#H" x="0.001" y="16.393" class="B"/><use xlink:href="#H" x="16.394" y="16.399" class="B"/><use xlink:href="#H" x="8.195" y="8.195" class="B"/></g></g></symbol><defs ><path id="C" d="M33.325 5.096c-1.169-1.169-1.169-3.051 0-4.22s3.051-1.169 4.22 0 1.169 3.051 0 4.22-3.051 1.169-4.22 0z"/><path id="D" d="M41.291 13.531c-1.298-1.298-1.298-3.388 0-4.686s3.388-1.298 4.686 0 1.298 3.388 0 4.686-3.388 1.298-4.686 0z"/><path id="E" d="M49.256 21.966a3.64 3.64 0 1 1 5.156-5.156 3.64 3.64 0 1 1-5.156 5.156z"/><path id="F" d="M17.166 4.86c-1.039-1.039-1.039-2.711 0-3.75s2.711-1.039 3.75 0 1.039 2.711 0 3.75-2.711 1.039-3.75 0z"/><path id="G" d="M49.022 38.593c-1.557-1.557-1.558-4.065 0-5.622s4.065-1.558 5.622 0 1.557 4.065 0 5.622-4.065 1.557-5.622 0z"/><path id="H" d="M17.168 37.645c-1.039-1.039-1.039-2.712 0-3.751s2.712-1.039 3.751 0 1.039 2.712 0 3.751-2.712 1.039-3.751 0z"/></defs></svg>