<svg width="198" height="52" viewBox="0 0 198 52" fill="none" xmlns="http://www.w3.org/2000/svg">
<path d="M32.7746 21.7168C32.7746 22.7807 32.3994 23.6832 31.6489 24.4242C30.8984 25.1652 29.9912 25.5357 28.9272 25.5357H21.7168V17.8693H28.9272C29.9912 17.8693 30.8984 18.2445 31.6489 18.995C32.3994 19.7455 32.7746 20.6528 32.7746 21.7168ZM37.8761 21.7168C37.8761 19.2468 37.0068 17.1378 35.2684 15.3898C33.5299 13.6418 31.4161 12.7679 28.9272 12.7679H16.5868V38.3036H21.7168V30.6372H28.9272C31.3971 30.6372 33.5061 29.7679 35.2541 28.0294C37.0021 26.291 37.8761 24.1867 37.8761 21.7168ZM51.0714 25.5357C51.0714 28.9937 50.3969 32.2996 49.0479 35.4536C47.699 38.6076 45.8845 41.3245 43.6045 43.6045C41.3245 45.8845 38.6076 47.699 35.4536 49.0479C32.2996 50.3969 28.9937 51.0714 25.5357 51.0714C22.0778 51.0714 18.7718 50.3969 15.6178 49.0479C12.4639 47.699 9.74689 45.8845 7.46692 43.6045C5.18694 41.3245 3.37246 38.6076 2.02348 35.4536C0.674492 32.2996 0 28.9937 0 25.5357C0 22.0778 0.674492 18.7718 2.02348 15.6178C3.37246 12.4639 5.18694 9.74689 7.46692 7.46692C9.74689 5.18694 12.4639 3.37246 15.6178 2.02348C18.7718 0.674492 22.0778 0 25.5357 0C28.9937 0 32.2996 0.674492 35.4536 2.02348C38.6076 3.37246 41.3245 5.18694 43.6045 7.46692C45.8845 9.74689 47.699 12.4639 49.0479 15.6178C50.3969 18.7718 51.0714 22.0778 51.0714 25.5357Z" fill="#9A9A9A"/>
<path d="M68.3069 28.9724V34.5714H65.3479V18.6654H70.5289C71.5923 18.6654 72.5126 18.7901 73.2899 19.0394C74.0673 19.2888 74.7089 19.6371 75.2149 20.0844C75.7209 20.5318 76.0949 21.0671 76.3369 21.6904C76.5789 22.3138 76.6999 22.9958 76.6999 23.7364C76.6999 24.5064 76.5716 25.2141 76.3149 25.8594C76.0583 26.4974 75.6733 27.0474 75.1599 27.5094C74.6466 27.9714 74.0049 28.3308 73.2349 28.5874C72.4649 28.8441 71.5629 28.9724 70.5289 28.9724H68.3069ZM68.3069 26.6624H70.5289C71.0716 26.6624 71.5446 26.5964 71.9479 26.4644C72.3513 26.3251 72.6849 26.1308 72.9489 25.8814C73.2129 25.6248 73.4109 25.3168 73.5429 24.9574C73.6749 24.5908 73.7409 24.1838 73.7409 23.7364C73.7409 23.3111 73.6749 22.9261 73.5429 22.5814C73.4109 22.2368 73.2129 21.9434 72.9489 21.7014C72.6849 21.4594 72.3513 21.2761 71.9479 21.1514C71.5446 21.0194 71.0716 20.9534 70.5289 20.9534H68.3069V26.6624ZM78.8449 34.5714V23.2854H80.4399C80.7186 23.2854 80.9129 23.3368 81.0229 23.4394C81.1329 23.5421 81.2063 23.7181 81.2429 23.9674L81.4079 25.3314C81.8113 24.6348 82.2843 24.0848 82.8269 23.6814C83.3696 23.2781 83.9783 23.0764 84.6529 23.0764C85.2103 23.0764 85.6723 23.2048 86.0389 23.4614L85.6869 25.4964C85.6649 25.6284 85.6173 25.7238 85.5439 25.7824C85.4706 25.8338 85.3716 25.8594 85.2469 25.8594C85.1369 25.8594 84.9866 25.8338 84.7959 25.7824C84.6053 25.7311 84.3523 25.7054 84.0369 25.7054C83.4723 25.7054 82.9883 25.8631 82.5849 26.1784C82.1816 26.4864 81.8406 26.9411 81.5619 27.5424V34.5714H78.8449ZM92.6434 23.1094C93.4867 23.1094 94.2494 23.2451 94.9314 23.5164C95.6207 23.7878 96.2074 24.1728 96.6914 24.6714C97.1754 25.1701 97.5494 25.7788 97.8134 26.4974C98.0774 27.2161 98.2094 28.0191 98.2094 28.9064C98.2094 29.8011 98.0774 30.6078 97.8134 31.3264C97.5494 32.0451 97.1754 32.6574 96.6914 33.1634C96.2074 33.6694 95.6207 34.0581 94.9314 34.3294C94.2494 34.6008 93.4867 34.7364 92.6434 34.7364C91.8001 34.7364 91.0337 34.6008 90.3444 34.3294C89.6551 34.0581 89.0647 33.6694 88.5734 33.1634C88.0894 32.6574 87.7117 32.0451 87.4404 31.3264C87.1764 30.6078 87.0444 29.8011 87.0444 28.9064C87.0444 28.0191 87.1764 27.2161 87.4404 26.4974C87.7117 25.7788 88.0894 25.1701 88.5734 24.6714C89.0647 24.1728 89.6551 23.7878 90.3444 23.5164C91.0337 23.2451 91.8001 23.1094 92.6434 23.1094ZM92.6434 32.6464C93.5821 32.6464 94.2751 32.3311 94.7224 31.7004C95.1771 31.0698 95.4044 30.1458 95.4044 28.9284C95.4044 27.7111 95.1771 26.7834 94.7224 26.1454C94.2751 25.5074 93.5821 25.1884 92.6434 25.1884C91.6901 25.1884 90.9861 25.5111 90.5314 26.1564C90.0767 26.7944 89.8494 27.7184 89.8494 28.9284C89.8494 30.1384 90.0767 31.0624 90.5314 31.7004C90.9861 32.3311 91.6901 32.6464 92.6434 32.6464ZM108.271 34.5714C107.919 34.5714 107.688 34.4064 107.578 34.0764L107.358 32.9874C107.124 33.2514 106.878 33.4898 106.621 33.7024C106.365 33.9151 106.086 34.0984 105.785 34.2524C105.492 34.4064 105.173 34.5238 104.828 34.6044C104.491 34.6924 104.124 34.7364 103.728 34.7364C103.112 34.7364 102.548 34.6081 102.034 34.3514C101.521 34.0948 101.077 33.7244 100.703 33.2404C100.337 32.7491 100.051 32.1441 99.8453 31.4254C99.6473 30.7068 99.5483 29.8854 99.5483 28.9614C99.5483 28.1254 99.662 27.3481 99.8893 26.6294C100.117 25.9108 100.443 25.2874 100.868 24.7594C101.294 24.2314 101.803 23.8208 102.397 23.5274C102.991 23.2268 103.659 23.0764 104.399 23.0764C105.03 23.0764 105.569 23.1791 106.016 23.3844C106.464 23.5824 106.863 23.8501 107.215 24.1874V18.2254H109.932V34.5714H108.271ZM104.652 32.5804C105.217 32.5804 105.697 32.4631 106.093 32.2284C106.489 31.9938 106.863 31.6601 107.215 31.2274V26.1674C106.907 25.7934 106.57 25.5294 106.203 25.3754C105.844 25.2214 105.455 25.1444 105.037 25.1444C104.627 25.1444 104.253 25.2214 103.915 25.3754C103.585 25.5294 103.303 25.7641 103.068 26.0794C102.841 26.3874 102.665 26.7834 102.54 27.2674C102.416 27.7441 102.353 28.3088 102.353 28.9614C102.353 29.6214 102.405 30.1824 102.507 30.6444C102.617 31.0991 102.771 31.4731 102.969 31.7664C103.167 32.0524 103.409 32.2614 103.695 32.3934C103.981 32.5181 104.3 32.5804 104.652 32.5804ZM115.362 23.2854V30.4574C115.362 31.1468 115.52 31.6821 115.835 32.0634C116.158 32.4374 116.638 32.6244 117.276 32.6244C117.746 32.6244 118.186 32.5218 118.596 32.3164C119.007 32.1038 119.396 31.8141 119.762 31.4474V23.2854H122.479V34.5714H120.818C120.466 34.5714 120.235 34.4064 120.125 34.0764L119.938 33.1744C119.704 33.4091 119.462 33.6254 119.212 33.8234C118.963 34.0141 118.695 34.1791 118.409 34.3184C118.131 34.4504 117.826 34.5531 117.496 34.6264C117.174 34.7071 116.825 34.7474 116.451 34.7474C115.835 34.7474 115.289 34.6448 114.812 34.4394C114.343 34.2268 113.947 33.9298 113.624 33.5484C113.302 33.1671 113.056 32.7161 112.887 32.1954C112.726 31.6674 112.645 31.0881 112.645 30.4574V23.2854H115.362ZM133.311 25.6724C133.23 25.7751 133.15 25.8558 133.069 25.9144C132.996 25.9731 132.886 26.0024 132.739 26.0024C132.6 26.0024 132.464 25.9621 132.332 25.8814C132.2 25.7934 132.042 25.6981 131.859 25.5954C131.676 25.4854 131.456 25.3901 131.199 25.3094C130.95 25.2214 130.638 25.1774 130.264 25.1774C129.787 25.1774 129.369 25.2654 129.01 25.4414C128.651 25.6101 128.35 25.8558 128.108 26.1784C127.873 26.5011 127.697 26.8934 127.58 27.3554C127.463 27.8101 127.404 28.3271 127.404 28.9064C127.404 29.5078 127.466 30.0431 127.591 30.5124C127.723 30.9818 127.91 31.3778 128.152 31.7004C128.394 32.0158 128.687 32.2578 129.032 32.4264C129.377 32.5878 129.765 32.6684 130.198 32.6684C130.631 32.6684 130.979 32.6171 131.243 32.5144C131.514 32.4044 131.742 32.2871 131.925 32.1624C132.108 32.0304 132.266 31.9131 132.398 31.8104C132.537 31.7004 132.691 31.6454 132.86 31.6454C133.08 31.6454 133.245 31.7298 133.355 31.8984L134.136 32.8884C133.835 33.2404 133.509 33.5374 133.157 33.7794C132.805 34.0141 132.438 34.2048 132.057 34.3514C131.683 34.4908 131.294 34.5898 130.891 34.6484C130.488 34.7071 130.088 34.7364 129.692 34.7364C128.995 34.7364 128.339 34.6081 127.723 34.3514C127.107 34.0874 126.568 33.7061 126.106 33.2074C125.651 32.7088 125.288 32.1001 125.017 31.3814C124.753 30.6554 124.621 29.8304 124.621 28.9064C124.621 28.0778 124.738 27.3114 124.973 26.6074C125.215 25.8961 125.567 25.2838 126.029 24.7704C126.491 24.2498 127.063 23.8428 127.745 23.5494C128.427 23.2561 129.212 23.1094 130.099 23.1094C130.942 23.1094 131.679 23.2451 132.31 23.5164C132.948 23.7878 133.52 24.1764 134.026 24.6824L133.311 25.6724ZM139.571 34.7474C138.596 34.7474 137.844 34.4724 137.316 33.9224C136.788 33.3651 136.524 32.5988 136.524 31.6234V25.3204H135.38C135.234 25.3204 135.105 25.2728 134.995 25.1774C134.893 25.0821 134.841 24.9391 134.841 24.7484V23.6704L136.656 23.3734L137.228 20.2934C137.258 20.1468 137.324 20.0331 137.426 19.9524C137.536 19.8718 137.672 19.8314 137.833 19.8314H139.241V23.3844H142.211V25.3204H139.241V31.4364C139.241 31.7884 139.329 32.0634 139.505 32.2614C139.681 32.4594 139.916 32.5584 140.209 32.5584C140.378 32.5584 140.517 32.5401 140.627 32.5034C140.745 32.4594 140.844 32.4154 140.924 32.3714C141.012 32.3274 141.089 32.2871 141.155 32.2504C141.221 32.2064 141.287 32.1844 141.353 32.1844C141.434 32.1844 141.5 32.2064 141.551 32.2504C141.603 32.2871 141.658 32.3458 141.716 32.4264L142.53 33.7464C142.134 34.0764 141.68 34.3258 141.166 34.4944C140.653 34.6631 140.121 34.7474 139.571 34.7474ZM162.2 34.5714H159.219V27.6194H151.761V34.5714H148.78V18.6654H151.761V25.5074H159.219V18.6654H162.2V34.5714ZM167.741 23.2854V30.4574C167.741 31.1468 167.899 31.6821 168.214 32.0634C168.537 32.4374 169.017 32.6244 169.655 32.6244C170.124 32.6244 170.564 32.5218 170.975 32.3164C171.386 32.1038 171.774 31.8141 172.141 31.4474V23.2854H174.858V34.5714H173.197C172.845 34.5714 172.614 34.4064 172.504 34.0764L172.317 33.1744C172.082 33.4091 171.84 33.6254 171.591 33.8234C171.342 34.0141 171.074 34.1791 170.788 34.3184C170.509 34.4504 170.205 34.5531 169.875 34.6264C169.552 34.7071 169.204 34.7474 168.83 34.7474C168.214 34.7474 167.668 34.6448 167.191 34.4394C166.722 34.2268 166.326 33.9298 166.003 33.5484C165.68 33.1671 165.435 32.7161 165.266 32.1954C165.105 31.6674 165.024 31.0881 165.024 30.4574V23.2854H167.741ZM177.759 34.5714V23.2854H179.42C179.772 23.2854 180.003 23.4504 180.113 23.7804L180.3 24.6714C180.527 24.4368 180.766 24.2241 181.015 24.0334C181.272 23.8428 181.539 23.6778 181.818 23.5384C182.104 23.3991 182.408 23.2928 182.731 23.2194C183.054 23.1461 183.406 23.1094 183.787 23.1094C184.403 23.1094 184.949 23.2158 185.426 23.4284C185.903 23.6338 186.299 23.9271 186.614 24.3084C186.937 24.6824 187.179 25.1334 187.34 25.6614C187.509 26.1821 187.593 26.7578 187.593 27.3884V34.5714H184.876V27.3884C184.876 26.6991 184.715 26.1674 184.392 25.7934C184.077 25.4121 183.6 25.2214 182.962 25.2214C182.493 25.2214 182.053 25.3278 181.642 25.5404C181.231 25.7531 180.843 26.0428 180.476 26.4094V34.5714H177.759ZM193.97 34.7474C192.995 34.7474 192.243 34.4724 191.715 33.9224C191.187 33.3651 190.923 32.5988 190.923 31.6234V25.3204H189.779C189.632 25.3204 189.504 25.2728 189.394 25.1774C189.291 25.0821 189.24 24.9391 189.24 24.7484V23.6704L191.055 23.3734L191.627 20.2934C191.656 20.1468 191.722 20.0331 191.825 19.9524C191.935 19.8718 192.071 19.8314 192.232 19.8314H193.64V23.3844H196.61V25.3204H193.64V31.4364C193.64 31.7884 193.728 32.0634 193.904 32.2614C194.08 32.4594 194.315 32.5584 194.608 32.5584C194.777 32.5584 194.916 32.5401 195.026 32.5034C195.143 32.4594 195.242 32.4154 195.323 32.3714C195.411 32.3274 195.488 32.2871 195.554 32.2504C195.62 32.2064 195.686 32.1844 195.752 32.1844C195.833 32.1844 195.899 32.2064 195.95 32.2504C196.001 32.2871 196.056 32.3458 196.115 32.4264L196.929 33.7464C196.533 34.0764 196.078 34.3258 195.565 34.4944C195.052 34.6631 194.52 34.7474 193.97 34.7474Z" fill="#9A9A9A"/>
</svg>
