<svg xmlns="http://www.w3.org/2000/svg" xmlns:xlink="http://www.w3.org/1999/xlink" viewBox="0 0 79.688 85" fill="#fff" fill-rule="evenodd" stroke="#000" stroke-linecap="round" stroke-linejoin="round"><use xlink:href="#A" x="2.344" y="2.5"/><symbol id="A" overflow="visible"><g stroke="none"><path d="M12.906 3.106h49.189a12.89 12.89 0 0 1 9.126 3.789A12.95 12.95 0 0 1 75 16.042v21.716c-2.547-1.319-8.123-2.723-16.373-2.723-3.16-.013-6.316.224-9.439.709-5.561.922-8.49 2.511-8.49 3.489v36.88c0 .61.835 1.419 2.42 2.213H12.906a12.89 12.89 0 0 1-9.126-3.789C1.36 72.111 0 68.821 0 65.39V16.057A12.95 12.95 0 0 1 3.775 6.9a12.89 12.89 0 0 1 9.131-3.794z" fill="#19486f"/><path d="M12.906 0h49.189a12.89 12.89 0 0 1 9.126 3.789A12.95 12.95 0 0 1 75 12.936v21.702c-2.547-1.319-8.123-2.723-16.373-2.723-3.16-.013-6.316.224-9.439.709-5.561.922-8.49 2.511-8.49 3.489v36.88c0 .61.835 1.419 2.42 2.213H12.906a12.89 12.89 0 0 1-9.126-3.789A12.95 12.95 0 0 1 0 62.27V12.936C0 5.792 5.778 0 12.906 0z" fill="#2e73b8"/><path d="M59.929 41.816a50.18 50.18 0 0 0-7.925.596 23.28 23.28 0 0 1-7.075-.624v3.546c0 .823 2.476 2.156 7.075 2.908a47.91 47.91 0 0 0 7.925.596c9.764 0 15.071-2.312 15.071-3.504v-3.546zM44.576 52.227v24.256c0 1.234 4.245 3.504 14.321 3.504 4.192.102 8.377-.375 12.439-1.418 2.01-.653 3.439-1.418 3.594-1.943V52.511c-2.943 1.83-9.014 2.837-15.043 2.837h-.396-1.854-.255l-1.486-.255h-.764l-1.189-.099-.637-.099-1.274-.17c-2.625-.334-5.159-1.182-7.458-2.496z" fill="#19486f"/><path d="M59.929 38.285a50.19 50.19 0 0 0-7.925.596c-4.67.78-7.075 2.113-7.075 2.922s2.476 2.156 7.075 2.908a47.92 47.92 0 0 0 7.925.596c9.764 0 15.071-2.312 15.071-3.503s-5.307-3.518-15.071-3.518zM44.576 48.681v24.255c0 1.234 4.245 3.504 14.321 3.504 4.192.102 8.377-.375 12.439-1.419 2.01-.652 3.439-1.418 3.594-1.943V48.965c-2.943 1.83-9.014 2.837-15.043 2.837h-.396-1.854-.255l-1.486-.255h-.764l-1.189-.213h-.637l-1.274-.17c-2.624-.33-5.158-1.173-7.458-2.482z" fill="#2e73b8"/><path d="M12.906 75.178H43.09v3.106H12.906a12.89 12.89 0 0 1-9.126-3.789A12.95 12.95 0 0 1 0 65.348v-3.121a12.95 12.95 0 0 0 3.775 9.157 12.89 12.89 0 0 0 9.131 3.794z" fill="#19486f"/><path d="M12.297 8.61c4.429 0 4.981 3.163 4.981 7.631s-.552 7.631-4.981 7.631-4.981-3.163-4.981-7.631.552-7.631 4.981-7.631zm0 13.078c1.741 0 2.024-1.503 2.024-5.447s-.283-5.447-2.024-5.447-2.038 1.518-2.038 5.447.354 5.447 2.038 5.447zm6.198-12.795h5.462a3.46 3.46 0 0 1 2.856.954 3.48 3.48 0 0 1 1.035 2.834c0 1.957-.778 3.262-2.434 3.617h0c2.009.27 2.321 1.418 2.363 4.482 0 1.546.099 2.34.651 2.638v.128H25.23A2.84 2.84 0 0 1 24.862 22l-.085-2.837c0-1.149-.552-1.844-1.741-1.844h-1.585v6.213h-2.958zm2.958 6.411h1.231a1.92 1.92 0 0 0 1.672-.529 1.93 1.93 0 0 0 .55-1.669 1.82 1.82 0 0 0-.518-1.533 1.81 1.81 0 0 0-1.533-.509H21.44zm11.264-6.41h3.651l3.877 14.681h-3.071l-.679-3.106h-3.891l-.679 3.106H28.84zm.396 9.149h2.83l-1.415-6.596h0zm13.727-4.185c0-2.142-.425-3.064-1.769-3.064s-1.84 1.503-1.84 5.674c0 4.44.608 5.248 1.882 5.248s1.84-.553 1.84-3.716h2.957c0 3.163-.778 5.901-4.655 5.901-4.429 0-4.981-3.163-4.981-7.631s.552-7.631 4.981-7.631 4.528 3.106 4.528 5.248zm4.132 9.717V8.894h2.958v12.255h5.236v2.426zM68.193 8.894v2.426h-5.222v3.461h4.925v2.426h-4.925v3.943h5.434v2.426h-8.391V8.894zM51.651 54.171h4.627l3.283 13.801h0l3.34-13.801h4.528v18.681h-2.83v-15.49h0l-3.778 15.49h-2.505l-3.736-15.49h0v15.49h-2.929z"/></g></symbol></svg>