<svg xmlns="http://www.w3.org/2000/svg" xmlns:xlink="http://www.w3.org/1999/xlink" viewBox="0 0 65.697 56.697" fill="#fff" fill-rule="evenodd" stroke="#000" stroke-linecap="round" stroke-linejoin="round"><use xlink:href="#A" x=".848" y=".848"/><symbol id="A" overflow="visible"><g stroke="none" fill-rule="nonzero"><path d="M61.49 42.297c-3.415 1.781-21.106 9.055-24.873 11.018s-5.859 1.944-8.835.523S5.981 44.811 2.588 43.189C.891 42.378.002 41.696.002 41.051v-6.469s24.512-5.336 28.47-6.756 5.327-1.471 8.697-.238S60.673 32.454 64 33.674v6.379c0 .64-.767 1.357-2.506 2.246z" fill="#a41e11"/><path d="M61.49 35.826c-3.415 1.782-21.106 9.055-24.873 11.018s-5.859 1.944-8.835.523S5.981 38.34 2.587 36.718s-3.461-2.737-.131-4.041L28.47 22.605c3.957-1.418 5.327-1.471 8.697-.238s20.954 8.232 24.262 9.471 3.456 2.206.041 4.004z" fill="#d82c20"/><path d="M61.49 31.747c-3.415 1.781-21.106 9.055-24.873 11.018s-5.859 1.944-8.835.523S5.981 34.261 2.588 32.639C.891 31.828.002 31.146.002 30.501v-6.469s24.512-5.336 28.47-6.756 5.327-1.471 8.697-.238S60.673 21.904 64 23.124v6.379c0 .64-.767 1.357-2.506 2.246z" fill="#a41e11"/><path d="M61.49 25.277c-3.415 1.782-21.106 9.055-24.873 11.018s-5.859 1.944-8.835.523S5.981 27.792 2.587 26.17s-3.461-2.737-.131-4.041l26.013-10.07c3.957-1.42 5.327-1.471 8.697-.237s20.954 8.234 24.283 9.45 3.456 2.206.041 4.004z" fill="#d82c20"/><path d="M61.49 20.806c-3.415 1.781-21.106 9.055-24.873 11.02s-5.859 1.944-8.835.523S5.981 23.322 2.588 21.7C.891 20.889.002 20.207.002 19.563V13.09s24.512-5.336 28.47-6.756 5.327-1.471 8.697-.238S60.673 10.962 64 12.182v6.38c0 .64-.767 1.357-2.506 2.246z" fill="#a41e11"/><path d="M61.49 14.335c-3.415 1.782-21.106 9.055-24.873 11.018s-5.859 1.944-8.835.523S5.981 16.85 2.587 15.228s-3.461-2.737-.131-4.041L28.47 1.117c3.957-1.42 5.327-1.471 8.697-.238s20.954 8.234 24.283 9.45 3.456 2.206.041 4.004z" fill="#d82c20"/><path d="M33.597 11.668l-2.005-3.334-6.403-.577 4.778-1.724-1.434-2.647 4.472 1.748 4.218-1.381-1.14 2.735L40.382 8.1l-5.545.577zm-10.682 6.637l14.829-2.277-4.479 6.569zm-11.924-5.466c0-1.702 3.535-3.073 7.927-3.073s7.927 1.37 7.927 3.073-3.535 3.073-7.927 3.073-7.927-1.37-7.927-3.073z"/><path d="M55.715 12.391l-8.772 3.465-.007-6.934z" fill="#7a0c00"/><path d="M46.945 15.856l-.95.373-8.765-3.465 9.71-3.841z" fill="#ad2115"/></g></symbol></svg>