<svg width="16" height="16" viewBox="0 0 16 16" fill="none" xmlns="http://www.w3.org/2000/svg">

<path d="M6.0875 14V12.5H4.45625C3.55 12.5 3.36875 12.5455 3.36875 11.4347V9.62314C3.36875 8.71074 2.7375 8.1157 1.55625 8.06281V7.9438C2.7375 7.89091 3.36875 7.28926 3.36875 6.38347V4.56529C3.36875 3.45455 3.55 3.5 4.45625 3.5H6.0875V2H4.14375C2.45 2 1.90625 2.5686 1.90625 4.32727V5.79504C1.90625 6.83306 1.4125 7.3157 0 7.21653V8.79008C1.4125 8.69091 1.90625 9.17355 1.90625 10.205V11.6727C1.90625 13.4314 2.45 14 4.14375 14H6.0875Z" fill="#B4B4B4"/>
<path d="M11.8563 14C13.55 14 14.0938 13.4314 14.0938 11.6727V10.205C14.0938 9.17355 14.5875 8.69091 16 8.79008V7.21653C14.5875 7.3157 14.0938 6.83306 14.0938 5.79504V4.32727C14.0938 2.5686 13.55 2 11.8563 2H10V3.5H10.6313C11.5375 3.5 12.6313 3.45455 12.6313 4.56529V6.38347C12.6313 7.28926 13.2625 7.89091 14.4438 7.9438V8.06281C13.2625 8.1157 12.6313 8.71074 12.6313 9.62314V11.4347C12.6313 12.5455 11.5375 12.5 10.6313 12.5H10V14H11.8563Z" fill="#B4B4B4"/>
<circle cx="5" cy="8" r="1" fill="#C4C4C4"/>
<circle cx="8" cy="8" r="1" fill="#C4C4C4"/>
<circle cx="11" cy="8" r="1" fill="#C4C4C4"/>

</svg>
