<svg width="16" height="16" viewBox="0 0 16 16" fill="none" xmlns="http://www.w3.org/2000/svg">
<rect width="16" height="16" fill="white"/>
<path d="M10.0792 1.86207C9.86641 1.20698 9.16279 0.848499 8.50782 1.06141C7.85273 1.27421 7.49425 1.97782 7.70716 2.6328L10.9318 12.5543C11.1533 13.1663 11.8143 13.5102 12.4489 13.3275C13.1108 13.137 13.5143 12.434 13.3031 11.7839L10.0792 1.86207Z" fill="#DFA22F"/>
<path d="M5.08275 3.48512C4.86984 2.83008 4.16629 2.4716 3.51131 2.6844C2.85617 2.89726 2.49763 3.60082 2.7106 4.2559L5.93533 14.1775C6.15672 14.7894 6.81782 15.1333 7.45239 14.9505C8.11427 14.7601 8.51771 14.0571 8.3065 13.4069L5.08275 3.48512Z" fill="#3CB187"/>
<path d="M14.138 10.079C14.793 9.86618 15.1514 9.16268 14.9386 8.50754C14.7258 7.85256 14.0222 7.49403 13.3672 7.70689L3.44573 10.9317C2.83375 11.153 2.48987 11.8141 2.67248 12.4486C2.86301 13.1105 3.56602 13.514 4.21608 13.3028L14.138 10.079" fill="#CE1E5B"/>
<path d="M5.51365 12.8822L7.88494 12.1118L7.11437 9.74023L4.74292 10.511L5.51365 12.8823" fill="#392538"/>
<path d="M10.5103 11.2587C11.4068 10.9675 12.2401 10.6967 12.8816 10.4882L12.1109 8.11621L9.7395 8.887L10.5103 11.2587Z" fill="#BB242A"/>
<path d="M12.5144 5.08097C13.1695 4.86817 13.528 4.16462 13.3151 3.50948C13.1023 2.8545 12.3987 2.49602 11.7437 2.70882L1.8221 5.93366C1.21017 6.15488 0.866244 6.81599 1.04901 7.45056C1.23944 8.11238 1.94245 8.51588 2.59261 8.30466L12.5144 5.08092" fill="#72C5CD"/>
<path d="M3.88968 7.88431C4.53547 7.67446 5.36808 7.40389 6.26135 7.11374C5.97016 6.21713 5.69937 5.38387 5.49089 4.74219L3.1189 5.51308L3.88968 7.88431" fill="#248C73"/>
<path d="M8.88602 6.26181L11.2578 5.49113C11.0009 4.70046 10.744 3.90979 10.4871 3.11914L8.11523 3.89004L8.88602 6.26181Z" fill="#62803A"/>
</svg>
